<mxfile host="Electron" agent="Mozilla/5.0 (Windows NT 10.0; Win64; x64) AppleWebKit/537.36 (KHTML, like Gecko) draw.io/26.0.4 Chrome/128.0.6613.186 Electron/32.2.5 Safari/537.36" version="26.0.4">
  <diagram name="Page-1" id="HpVtwOQIAl14LfKYMcyn">
    <mxGraphModel dx="3000" dy="1035" grid="1" gridSize="10" guides="1" tooltips="1" connect="1" arrows="1" fold="1" page="1" pageScale="1" pageWidth="850" pageHeight="1100" math="0" shadow="0">
      <root>
        <mxCell id="0" />
        <mxCell id="1" parent="0" />
        <mxCell id="fengLA5zBDZJCM1A3xZZ-92" value="&lt;b&gt;&lt;span style=&quot;font-size:12.0pt;font-family:&amp;quot;Aptos&amp;quot;,sans-serif;&lt;br/&gt;mso-ascii-theme-font:minor-latin;mso-fareast-font-family:&amp;quot;Times New Roman&amp;quot;;&lt;br/&gt;mso-fareast-theme-font:minor-fareast;mso-hansi-theme-font:minor-latin;&lt;br/&gt;mso-bidi-font-family:Arial;mso-ligatures:none;mso-ansi-language:#4C09;&lt;br/&gt;mso-fareast-language:#4C09;mso-bidi-language:AR-JO&quot;&gt;Volunteer&amp;nbsp;&lt;/span&gt;&lt;/b&gt;" style="shape=table;startSize=30;container=1;collapsible=1;childLayout=tableLayout;fixedRows=1;rowLines=0;fontStyle=1;align=center;resizeLast=1;html=1;labelBackgroundColor=none;" parent="1" vertex="1">
          <mxGeometry x="550" y="730" width="380" height="320" as="geometry" />
        </mxCell>
        <mxCell id="fengLA5zBDZJCM1A3xZZ-93" value="" style="shape=tableRow;horizontal=0;startSize=0;swimlaneHead=0;swimlaneBody=0;fillColor=none;collapsible=0;dropTarget=0;points=[[0,0.5],[1,0.5]];portConstraint=eastwest;top=0;left=0;right=0;bottom=1;labelBackgroundColor=none;" parent="fengLA5zBDZJCM1A3xZZ-92" vertex="1">
          <mxGeometry y="30" width="380" height="30" as="geometry" />
        </mxCell>
        <mxCell id="fengLA5zBDZJCM1A3xZZ-94" value="PK" style="shape=partialRectangle;connectable=0;fillColor=none;top=0;left=0;bottom=0;right=0;fontStyle=1;overflow=hidden;whiteSpace=wrap;html=1;labelBackgroundColor=none;" parent="fengLA5zBDZJCM1A3xZZ-93" vertex="1">
          <mxGeometry width="30" height="30" as="geometry">
            <mxRectangle width="30" height="30" as="alternateBounds" />
          </mxGeometry>
        </mxCell>
        <mxCell id="fengLA5zBDZJCM1A3xZZ-95" value="&lt;b style=&quot;text-align: center; text-wrap: nowrap;&quot;&gt;&lt;span style=&quot;font-size: 12pt; font-family: Aptos, sans-serif;&quot;&gt;Volunteer&amp;nbsp;&lt;/span&gt;&lt;/b&gt;&lt;span style=&quot;font-family: Aptos, sans-serif; font-size: 16px; font-weight: 400;&quot;&gt;_ID&amp;nbsp; &amp;nbsp; INT&lt;/span&gt;" style="shape=partialRectangle;connectable=0;fillColor=none;top=0;left=0;bottom=0;right=0;align=left;spacingLeft=6;fontStyle=5;overflow=hidden;whiteSpace=wrap;html=1;labelBackgroundColor=none;" parent="fengLA5zBDZJCM1A3xZZ-93" vertex="1">
          <mxGeometry x="30" width="350" height="30" as="geometry">
            <mxRectangle width="350" height="30" as="alternateBounds" />
          </mxGeometry>
        </mxCell>
        <mxCell id="fengLA5zBDZJCM1A3xZZ-99" value="" style="shape=tableRow;horizontal=0;startSize=0;swimlaneHead=0;swimlaneBody=0;fillColor=none;collapsible=0;dropTarget=0;points=[[0,0.5],[1,0.5]];portConstraint=eastwest;top=0;left=0;right=0;bottom=0;labelBackgroundColor=none;" parent="fengLA5zBDZJCM1A3xZZ-92" vertex="1">
          <mxGeometry y="60" width="380" height="30" as="geometry" />
        </mxCell>
        <mxCell id="fengLA5zBDZJCM1A3xZZ-100" value="" style="shape=partialRectangle;connectable=0;fillColor=none;top=0;left=0;bottom=0;right=0;editable=1;overflow=hidden;whiteSpace=wrap;html=1;labelBackgroundColor=none;" parent="fengLA5zBDZJCM1A3xZZ-99" vertex="1">
          <mxGeometry width="30" height="30" as="geometry">
            <mxRectangle width="30" height="30" as="alternateBounds" />
          </mxGeometry>
        </mxCell>
        <mxCell id="fengLA5zBDZJCM1A3xZZ-101" value="&lt;span style=&quot;font-family: Aptos, sans-serif; font-size: 16px;&quot;&gt;First_Name&lt;/span&gt;&lt;span style=&quot;font-size: 16px;&quot;&gt;&amp;nbsp; &amp;nbsp;VARCHAR(10), NOT NULL&lt;/span&gt;" style="shape=partialRectangle;connectable=0;fillColor=none;top=0;left=0;bottom=0;right=0;align=left;spacingLeft=6;overflow=hidden;whiteSpace=wrap;html=1;labelBackgroundColor=none;" parent="fengLA5zBDZJCM1A3xZZ-99" vertex="1">
          <mxGeometry x="30" width="350" height="30" as="geometry">
            <mxRectangle width="350" height="30" as="alternateBounds" />
          </mxGeometry>
        </mxCell>
        <mxCell id="fengLA5zBDZJCM1A3xZZ-102" value="" style="shape=tableRow;horizontal=0;startSize=0;swimlaneHead=0;swimlaneBody=0;fillColor=none;collapsible=0;dropTarget=0;points=[[0,0.5],[1,0.5]];portConstraint=eastwest;top=0;left=0;right=0;bottom=0;labelBackgroundColor=none;" parent="fengLA5zBDZJCM1A3xZZ-92" vertex="1">
          <mxGeometry y="90" width="380" height="30" as="geometry" />
        </mxCell>
        <mxCell id="fengLA5zBDZJCM1A3xZZ-103" value="" style="shape=partialRectangle;connectable=0;fillColor=none;top=0;left=0;bottom=0;right=0;editable=1;overflow=hidden;whiteSpace=wrap;html=1;labelBackgroundColor=none;" parent="fengLA5zBDZJCM1A3xZZ-102" vertex="1">
          <mxGeometry width="30" height="30" as="geometry">
            <mxRectangle width="30" height="30" as="alternateBounds" />
          </mxGeometry>
        </mxCell>
        <mxCell id="fengLA5zBDZJCM1A3xZZ-104" value="&lt;span style=&quot;font-family: Aptos, sans-serif; font-size: 16px;&quot;&gt;Last_Name&lt;/span&gt;&lt;span style=&quot;font-size: 16px;&quot;&gt;&amp;nbsp; &amp;nbsp;VARCHAR(10), NOT NULL&lt;/span&gt;" style="shape=partialRectangle;connectable=0;fillColor=none;top=0;left=0;bottom=0;right=0;align=left;spacingLeft=6;overflow=hidden;whiteSpace=wrap;html=1;labelBackgroundColor=none;" parent="fengLA5zBDZJCM1A3xZZ-102" vertex="1">
          <mxGeometry x="30" width="350" height="30" as="geometry">
            <mxRectangle width="350" height="30" as="alternateBounds" />
          </mxGeometry>
        </mxCell>
        <mxCell id="U0kx324UXWErjTrPCZD7-36" value="" style="shape=tableRow;horizontal=0;startSize=0;swimlaneHead=0;swimlaneBody=0;fillColor=none;collapsible=0;dropTarget=0;points=[[0,0.5],[1,0.5]];portConstraint=eastwest;top=0;left=0;right=0;bottom=0;labelBackgroundColor=none;" parent="fengLA5zBDZJCM1A3xZZ-92" vertex="1">
          <mxGeometry y="120" width="380" height="30" as="geometry" />
        </mxCell>
        <mxCell id="U0kx324UXWErjTrPCZD7-37" value="" style="shape=partialRectangle;connectable=0;fillColor=none;top=0;left=0;bottom=0;right=0;editable=1;overflow=hidden;whiteSpace=wrap;html=1;labelBackgroundColor=none;" parent="U0kx324UXWErjTrPCZD7-36" vertex="1">
          <mxGeometry width="30" height="30" as="geometry">
            <mxRectangle width="30" height="30" as="alternateBounds" />
          </mxGeometry>
        </mxCell>
        <mxCell id="U0kx324UXWErjTrPCZD7-38" value="&lt;span style=&quot;font-family: Aptos, sans-serif; font-size: 16px;&quot;&gt;Email&lt;/span&gt;&lt;span style=&quot;font-family: Aptos, sans-serif; font-size: 16px;&quot;&gt;&amp;nbsp; &amp;nbsp; &amp;nbsp; &amp;nbsp; VARCHAR(250), NOT NULL,&amp;nbsp;&lt;/span&gt;&lt;span style=&quot;font-family: Aptos, sans-serif; font-size: 16px;&quot;&gt;Unique&lt;/span&gt;" style="shape=partialRectangle;connectable=0;fillColor=none;top=0;left=0;bottom=0;right=0;align=left;spacingLeft=6;overflow=hidden;whiteSpace=wrap;html=1;labelBackgroundColor=none;" parent="U0kx324UXWErjTrPCZD7-36" vertex="1">
          <mxGeometry x="30" width="350" height="30" as="geometry">
            <mxRectangle width="350" height="30" as="alternateBounds" />
          </mxGeometry>
        </mxCell>
        <mxCell id="U0kx324UXWErjTrPCZD7-39" value="" style="shape=tableRow;horizontal=0;startSize=0;swimlaneHead=0;swimlaneBody=0;fillColor=none;collapsible=0;dropTarget=0;points=[[0,0.5],[1,0.5]];portConstraint=eastwest;top=0;left=0;right=0;bottom=0;labelBackgroundColor=none;" parent="fengLA5zBDZJCM1A3xZZ-92" vertex="1">
          <mxGeometry y="150" width="380" height="30" as="geometry" />
        </mxCell>
        <mxCell id="U0kx324UXWErjTrPCZD7-40" value="" style="shape=partialRectangle;connectable=0;fillColor=none;top=0;left=0;bottom=0;right=0;editable=1;overflow=hidden;whiteSpace=wrap;html=1;labelBackgroundColor=none;" parent="U0kx324UXWErjTrPCZD7-39" vertex="1">
          <mxGeometry width="30" height="30" as="geometry">
            <mxRectangle width="30" height="30" as="alternateBounds" />
          </mxGeometry>
        </mxCell>
        <mxCell id="U0kx324UXWErjTrPCZD7-41" value="&lt;span style=&quot;font-family: Aptos, sans-serif; font-size: 16px;&quot;&gt;Country&lt;/span&gt;&lt;span style=&quot;font-size: 12pt; font-family: Aptos, sans-serif;&quot;&gt;&amp;nbsp; &amp;nbsp;&lt;/span&gt;&lt;span style=&quot;font-family: Aptos, sans-serif; font-size: 16px;&quot;&gt;&amp;nbsp;&lt;/span&gt;&lt;span style=&quot;font-family: Aptos, sans-serif; font-size: 16px;&quot;&gt;VARCHAR(56)&lt;/span&gt;&lt;font face=&quot;Aptos, sans-serif&quot;&gt;&lt;span style=&quot;font-size: 16px;&quot;&gt;, Default(Jordan)&lt;/span&gt;&lt;/font&gt;" style="shape=partialRectangle;connectable=0;fillColor=none;top=0;left=0;bottom=0;right=0;align=left;spacingLeft=6;overflow=hidden;whiteSpace=wrap;html=1;labelBackgroundColor=none;" parent="U0kx324UXWErjTrPCZD7-39" vertex="1">
          <mxGeometry x="30" width="350" height="30" as="geometry">
            <mxRectangle width="350" height="30" as="alternateBounds" />
          </mxGeometry>
        </mxCell>
        <mxCell id="U0kx324UXWErjTrPCZD7-42" value="" style="shape=tableRow;horizontal=0;startSize=0;swimlaneHead=0;swimlaneBody=0;fillColor=none;collapsible=0;dropTarget=0;points=[[0,0.5],[1,0.5]];portConstraint=eastwest;top=0;left=0;right=0;bottom=0;labelBackgroundColor=none;" parent="fengLA5zBDZJCM1A3xZZ-92" vertex="1">
          <mxGeometry y="180" width="380" height="40" as="geometry" />
        </mxCell>
        <mxCell id="U0kx324UXWErjTrPCZD7-43" value="" style="shape=partialRectangle;connectable=0;fillColor=none;top=0;left=0;bottom=0;right=0;editable=1;overflow=hidden;whiteSpace=wrap;html=1;labelBackgroundColor=none;" parent="U0kx324UXWErjTrPCZD7-42" vertex="1">
          <mxGeometry width="30" height="40" as="geometry">
            <mxRectangle width="30" height="40" as="alternateBounds" />
          </mxGeometry>
        </mxCell>
        <mxCell id="U0kx324UXWErjTrPCZD7-44" value="&lt;font style=&quot;color: rgb(0, 0, 0);&quot;&gt;&lt;span style=&quot;forced-color-adjust: none; border-color: rgb(0, 0, 0); font-style: normal; font-variant-ligatures: normal; font-variant-caps: normal; font-weight: 400; letter-spacing: normal; orphans: 2; text-align: left; text-indent: 0px; text-transform: none; widows: 2; word-spacing: 0px; -webkit-text-stroke-width: 0px; white-space: normal; text-decoration-thickness: initial; text-decoration-style: initial; text-decoration-color: initial; font-family: Aptos, sans-serif; font-size: 16px;&quot;&gt;City&lt;/span&gt;&lt;span style=&quot;forced-color-adjust: none; border-color: rgb(0, 0, 0); font-style: normal; font-variant-ligatures: normal; font-variant-caps: normal; font-weight: 400; letter-spacing: normal; orphans: 2; text-align: left; text-indent: 0px; text-transform: none; widows: 2; word-spacing: 0px; -webkit-text-stroke-width: 0px; white-space: normal; text-decoration-thickness: initial; text-decoration-style: initial; text-decoration-color: initial; font-family: Aptos, sans-serif; font-size: 16px;&quot;&gt;&amp;nbsp; &amp;nbsp; &amp;nbsp; &amp;nbsp; &amp;nbsp; &amp;nbsp;&lt;/span&gt;&lt;span style=&quot;forced-color-adjust: none; border-color: rgb(0, 0, 0); font-style: normal; font-variant-ligatures: normal; font-variant-caps: normal; font-weight: 400; letter-spacing: normal; orphans: 2; text-align: left; text-indent: 0px; text-transform: none; widows: 2; word-spacing: 0px; -webkit-text-stroke-width: 0px; white-space: normal; text-decoration-thickness: initial; text-decoration-style: initial; text-decoration-color: initial; font-family: Aptos, sans-serif; font-size: 16px;&quot;&gt;VARCHAR(30)&lt;/span&gt;&lt;font style=&quot;forced-color-adjust: none; border-color: rgb(0, 0, 0); font-size: 12px; font-style: normal; font-variant-ligatures: normal; font-variant-caps: normal; font-weight: 400; letter-spacing: normal; orphans: 2; text-align: left; text-indent: 0px; text-transform: none; widows: 2; word-spacing: 0px; -webkit-text-stroke-width: 0px; white-space: normal; text-decoration-thickness: initial; text-decoration-style: initial; text-decoration-color: initial;&quot; face=&quot;Aptos, sans-serif&quot;&gt;&lt;span style=&quot;forced-color-adjust: none; border-color: rgb(0, 0, 0); font-size: 16px;&quot;&gt;, NOT NULL&lt;/span&gt;&lt;/font&gt;&lt;/font&gt;" style="shape=partialRectangle;connectable=0;fillColor=none;top=0;left=0;bottom=0;right=0;align=left;spacingLeft=6;overflow=hidden;whiteSpace=wrap;html=1;labelBackgroundColor=none;" parent="U0kx324UXWErjTrPCZD7-42" vertex="1">
          <mxGeometry x="30" width="350" height="40" as="geometry">
            <mxRectangle width="350" height="40" as="alternateBounds" />
          </mxGeometry>
        </mxCell>
        <mxCell id="U0kx324UXWErjTrPCZD7-76" value="" style="shape=tableRow;horizontal=0;startSize=0;swimlaneHead=0;swimlaneBody=0;fillColor=none;collapsible=0;dropTarget=0;points=[[0,0.5],[1,0.5]];portConstraint=eastwest;top=0;left=0;right=0;bottom=0;labelBackgroundColor=none;" parent="fengLA5zBDZJCM1A3xZZ-92" vertex="1">
          <mxGeometry y="220" width="380" height="40" as="geometry" />
        </mxCell>
        <mxCell id="U0kx324UXWErjTrPCZD7-77" value="" style="shape=partialRectangle;connectable=0;fillColor=none;top=0;left=0;bottom=0;right=0;editable=1;overflow=hidden;whiteSpace=wrap;html=1;labelBackgroundColor=none;" parent="U0kx324UXWErjTrPCZD7-76" vertex="1">
          <mxGeometry width="30" height="40" as="geometry">
            <mxRectangle width="30" height="40" as="alternateBounds" />
          </mxGeometry>
        </mxCell>
        <mxCell id="U0kx324UXWErjTrPCZD7-78" value="&lt;font style=&quot;color: rgb(0, 0, 0);&quot;&gt;&lt;span style=&quot;forced-color-adjust: none; border-color: rgb(0, 0, 0); font-style: normal; font-variant-ligatures: normal; font-variant-caps: normal; font-weight: 400; letter-spacing: normal; orphans: 2; text-align: left; text-indent: 0px; text-transform: none; widows: 2; word-spacing: 0px; -webkit-text-stroke-width: 0px; white-space: normal; text-decoration-thickness: initial; text-decoration-style: initial; text-decoration-color: initial; font-family: Aptos, sans-serif; font-size: 16px;&quot;&gt;Street_name&lt;/span&gt;&lt;span style=&quot;forced-color-adjust: none; border-color: rgb(0, 0, 0); font-style: normal; font-variant-ligatures: normal; font-variant-caps: normal; font-weight: 400; letter-spacing: normal; orphans: 2; text-align: left; text-indent: 0px; text-transform: none; widows: 2; word-spacing: 0px; -webkit-text-stroke-width: 0px; white-space: normal; text-decoration-thickness: initial; text-decoration-style: initial; text-decoration-color: initial; font-family: Aptos, sans-serif; font-size: 16px;&quot;&gt;&amp;nbsp;&amp;nbsp;&lt;/span&gt;&lt;span style=&quot;forced-color-adjust: none; border-color: rgb(0, 0, 0); font-style: normal; font-variant-ligatures: normal; font-variant-caps: normal; font-weight: 400; letter-spacing: normal; orphans: 2; text-align: left; text-indent: 0px; text-transform: none; widows: 2; word-spacing: 0px; -webkit-text-stroke-width: 0px; white-space: normal; text-decoration-thickness: initial; text-decoration-style: initial; text-decoration-color: initial; font-family: Aptos, sans-serif; font-size: 16px;&quot;&gt;VARCHAR(30)&lt;/span&gt;&lt;font style=&quot;forced-color-adjust: none; border-color: rgb(0, 0, 0); font-size: 12px; font-style: normal; font-variant-ligatures: normal; font-variant-caps: normal; font-weight: 400; letter-spacing: normal; orphans: 2; text-align: left; text-indent: 0px; text-transform: none; widows: 2; word-spacing: 0px; -webkit-text-stroke-width: 0px; white-space: normal; text-decoration-thickness: initial; text-decoration-style: initial; text-decoration-color: initial;&quot; face=&quot;Aptos, sans-serif&quot;&gt;&lt;span style=&quot;forced-color-adjust: none; border-color: rgb(0, 0, 0); font-size: 16px;&quot;&gt;, NOT NULL&lt;/span&gt;&lt;/font&gt;&lt;/font&gt;" style="shape=partialRectangle;connectable=0;fillColor=none;top=0;left=0;bottom=0;right=0;align=left;spacingLeft=6;overflow=hidden;whiteSpace=wrap;html=1;labelBackgroundColor=none;" parent="U0kx324UXWErjTrPCZD7-76" vertex="1">
          <mxGeometry x="30" width="350" height="40" as="geometry">
            <mxRectangle width="350" height="40" as="alternateBounds" />
          </mxGeometry>
        </mxCell>
        <mxCell id="nBY3CzWL4zLGvpDnenJC-1" value="" style="shape=tableRow;horizontal=0;startSize=0;swimlaneHead=0;swimlaneBody=0;fillColor=none;collapsible=0;dropTarget=0;points=[[0,0.5],[1,0.5]];portConstraint=eastwest;top=0;left=0;right=0;bottom=0;labelBackgroundColor=none;" parent="fengLA5zBDZJCM1A3xZZ-92" vertex="1">
          <mxGeometry y="260" width="380" height="30" as="geometry" />
        </mxCell>
        <mxCell id="nBY3CzWL4zLGvpDnenJC-2" value="" style="shape=partialRectangle;connectable=0;fillColor=none;top=0;left=0;bottom=0;right=0;editable=1;overflow=hidden;whiteSpace=wrap;html=1;labelBackgroundColor=none;" parent="nBY3CzWL4zLGvpDnenJC-1" vertex="1">
          <mxGeometry width="30" height="30" as="geometry">
            <mxRectangle width="30" height="30" as="alternateBounds" />
          </mxGeometry>
        </mxCell>
        <mxCell id="nBY3CzWL4zLGvpDnenJC-3" value="&lt;span style=&quot;font-family: Aptos, sans-serif; font-size: 16px;&quot;&gt;Building_Number&amp;nbsp; &amp;nbsp; VARCHAR(10), NOT NULL&lt;/span&gt;" style="shape=partialRectangle;connectable=0;fillColor=none;top=0;left=0;bottom=0;right=0;align=left;spacingLeft=6;overflow=hidden;whiteSpace=wrap;html=1;labelBackgroundColor=none;" parent="nBY3CzWL4zLGvpDnenJC-1" vertex="1">
          <mxGeometry x="30" width="350" height="30" as="geometry">
            <mxRectangle width="350" height="30" as="alternateBounds" />
          </mxGeometry>
        </mxCell>
        <mxCell id="AB6vwTqWQWzhfj3XzBku-1" value="" style="shape=tableRow;horizontal=0;startSize=0;swimlaneHead=0;swimlaneBody=0;fillColor=none;collapsible=0;dropTarget=0;points=[[0,0.5],[1,0.5]];portConstraint=eastwest;top=0;left=0;right=0;bottom=0;labelBackgroundColor=none;" parent="fengLA5zBDZJCM1A3xZZ-92" vertex="1">
          <mxGeometry y="290" width="380" height="30" as="geometry" />
        </mxCell>
        <mxCell id="AB6vwTqWQWzhfj3XzBku-2" value="" style="shape=partialRectangle;connectable=0;fillColor=none;top=0;left=0;bottom=0;right=0;editable=1;overflow=hidden;whiteSpace=wrap;html=1;labelBackgroundColor=none;" parent="AB6vwTqWQWzhfj3XzBku-1" vertex="1">
          <mxGeometry width="30" height="30" as="geometry">
            <mxRectangle width="30" height="30" as="alternateBounds" />
          </mxGeometry>
        </mxCell>
        <mxCell id="AB6vwTqWQWzhfj3XzBku-3" value="&lt;span style=&quot;font-size:11.0pt;line-height:&lt;br/&gt;107%;font-family:&amp;quot;Calibri&amp;quot;,sans-serif;mso-ascii-theme-font:minor-latin;&lt;br/&gt;mso-fareast-font-family:Calibri;mso-fareast-theme-font:minor-latin;mso-hansi-theme-font:&lt;br/&gt;minor-latin;mso-bidi-font-family:Arial;mso-bidi-theme-font:minor-bidi;&lt;br/&gt;mso-ansi-language:EN-US;mso-fareast-language:EN-US;mso-bidi-language:AR-JO&quot; lang=&quot;EN-US&quot;&gt;&lt;span style=&quot;font-family: Aptos, sans-serif; font-size: 16px;&quot;&gt;Date_Of_Birth&lt;/span&gt;&amp;nbsp; &amp;nbsp;&amp;nbsp;&lt;/span&gt;&lt;span style=&quot;font-size: 16px;&quot;&gt;DATE, NOT NULL&lt;/span&gt;" style="shape=partialRectangle;connectable=0;fillColor=none;top=0;left=0;bottom=0;right=0;align=left;spacingLeft=6;overflow=hidden;whiteSpace=wrap;html=1;labelBackgroundColor=none;" parent="AB6vwTqWQWzhfj3XzBku-1" vertex="1">
          <mxGeometry x="30" width="350" height="30" as="geometry">
            <mxRectangle width="350" height="30" as="alternateBounds" />
          </mxGeometry>
        </mxCell>
        <mxCell id="fengLA5zBDZJCM1A3xZZ-118" value="&lt;b&gt;&lt;span style=&quot;font-size:12.0pt;font-family:&amp;quot;Aptos&amp;quot;,sans-serif;&lt;br/&gt;mso-ascii-theme-font:minor-latin;mso-fareast-font-family:&amp;quot;Times New Roman&amp;quot;;&lt;br/&gt;mso-fareast-theme-font:minor-fareast;mso-hansi-theme-font:minor-latin;&lt;br/&gt;mso-bidi-font-family:Arial;mso-ligatures:none;mso-ansi-language:#4C09;&lt;br/&gt;mso-fareast-language:#4C09;mso-bidi-language:AR-JO&quot;&gt;Event&lt;/span&gt;&lt;/b&gt;" style="shape=table;startSize=30;container=1;collapsible=1;childLayout=tableLayout;fixedRows=1;rowLines=0;fontStyle=1;align=center;resizeLast=1;html=1;labelBackgroundColor=none;" parent="1" vertex="1">
          <mxGeometry x="-70" y="75" width="470" height="330" as="geometry" />
        </mxCell>
        <mxCell id="fengLA5zBDZJCM1A3xZZ-119" value="" style="shape=tableRow;horizontal=0;startSize=0;swimlaneHead=0;swimlaneBody=0;fillColor=none;collapsible=0;dropTarget=0;points=[[0,0.5],[1,0.5]];portConstraint=eastwest;top=0;left=0;right=0;bottom=1;labelBackgroundColor=none;" parent="fengLA5zBDZJCM1A3xZZ-118" vertex="1">
          <mxGeometry y="30" width="470" height="30" as="geometry" />
        </mxCell>
        <mxCell id="fengLA5zBDZJCM1A3xZZ-120" value="PK" style="shape=partialRectangle;connectable=0;fillColor=none;top=0;left=0;bottom=0;right=0;fontStyle=1;overflow=hidden;whiteSpace=wrap;html=1;labelBackgroundColor=none;" parent="fengLA5zBDZJCM1A3xZZ-119" vertex="1">
          <mxGeometry width="30" height="30" as="geometry">
            <mxRectangle width="30" height="30" as="alternateBounds" />
          </mxGeometry>
        </mxCell>
        <mxCell id="fengLA5zBDZJCM1A3xZZ-121" value="&lt;u&gt;&lt;span style=&quot;font-size:12.0pt;font-family:&amp;quot;Aptos&amp;quot;,sans-serif;mso-ascii-theme-font:&lt;br/&gt;minor-latin;mso-fareast-font-family:&amp;quot;Times New Roman&amp;quot;;mso-fareast-theme-font:&lt;br/&gt;minor-fareast;mso-hansi-theme-font:minor-latin;mso-bidi-font-family:Arial;&lt;br/&gt;mso-ligatures:none;mso-ansi-language:EN-US;mso-fareast-language:#4C09;&lt;br/&gt;mso-bidi-language:AR-JO&quot; lang=&quot;EN-US&quot;&gt;Event_ID&lt;/span&gt;&lt;/u&gt;&lt;span style=&quot;font-family: Aptos, sans-serif; font-size: 16px;&quot;&gt;&amp;nbsp; &amp;nbsp;INT&lt;/span&gt;" style="shape=partialRectangle;connectable=0;fillColor=none;top=0;left=0;bottom=0;right=0;align=left;spacingLeft=6;fontStyle=5;overflow=hidden;whiteSpace=wrap;html=1;labelBackgroundColor=none;" parent="fengLA5zBDZJCM1A3xZZ-119" vertex="1">
          <mxGeometry x="30" width="440" height="30" as="geometry">
            <mxRectangle width="440" height="30" as="alternateBounds" />
          </mxGeometry>
        </mxCell>
        <mxCell id="fengLA5zBDZJCM1A3xZZ-122" value="" style="shape=tableRow;horizontal=0;startSize=0;swimlaneHead=0;swimlaneBody=0;fillColor=none;collapsible=0;dropTarget=0;points=[[0,0.5],[1,0.5]];portConstraint=eastwest;top=0;left=0;right=0;bottom=0;labelBackgroundColor=none;" parent="fengLA5zBDZJCM1A3xZZ-118" vertex="1">
          <mxGeometry y="60" width="470" height="30" as="geometry" />
        </mxCell>
        <mxCell id="fengLA5zBDZJCM1A3xZZ-123" value="" style="shape=partialRectangle;connectable=0;fillColor=none;top=0;left=0;bottom=0;right=0;editable=1;overflow=hidden;whiteSpace=wrap;html=1;labelBackgroundColor=none;" parent="fengLA5zBDZJCM1A3xZZ-122" vertex="1">
          <mxGeometry width="30" height="30" as="geometry">
            <mxRectangle width="30" height="30" as="alternateBounds" />
          </mxGeometry>
        </mxCell>
        <mxCell id="fengLA5zBDZJCM1A3xZZ-124" value="&lt;span style=&quot;font-size:12.0pt;font-family:&amp;quot;Aptos&amp;quot;,sans-serif;&lt;br/&gt;mso-ascii-theme-font:minor-latin;mso-fareast-font-family:&amp;quot;Times New Roman&amp;quot;;&lt;br/&gt;mso-fareast-theme-font:minor-fareast;mso-hansi-theme-font:minor-latin;&lt;br/&gt;mso-bidi-font-family:Arial;mso-ligatures:none;mso-ansi-language:#4C09;&lt;br/&gt;mso-fareast-language:#4C09;mso-bidi-language:AR-JO&quot;&gt;Event_Name&amp;nbsp; &amp;nbsp;VARCHAR(20), NOT NULL, UNIQUE&lt;/span&gt;" style="shape=partialRectangle;connectable=0;fillColor=none;top=0;left=0;bottom=0;right=0;align=left;spacingLeft=6;overflow=hidden;whiteSpace=wrap;html=1;labelBackgroundColor=none;" parent="fengLA5zBDZJCM1A3xZZ-122" vertex="1">
          <mxGeometry x="30" width="440" height="30" as="geometry">
            <mxRectangle width="440" height="30" as="alternateBounds" />
          </mxGeometry>
        </mxCell>
        <mxCell id="fengLA5zBDZJCM1A3xZZ-125" value="" style="shape=tableRow;horizontal=0;startSize=0;swimlaneHead=0;swimlaneBody=0;fillColor=none;collapsible=0;dropTarget=0;points=[[0,0.5],[1,0.5]];portConstraint=eastwest;top=0;left=0;right=0;bottom=0;labelBackgroundColor=none;" parent="fengLA5zBDZJCM1A3xZZ-118" vertex="1">
          <mxGeometry y="90" width="470" height="30" as="geometry" />
        </mxCell>
        <mxCell id="fengLA5zBDZJCM1A3xZZ-126" value="" style="shape=partialRectangle;connectable=0;fillColor=none;top=0;left=0;bottom=0;right=0;editable=1;overflow=hidden;whiteSpace=wrap;html=1;labelBackgroundColor=none;" parent="fengLA5zBDZJCM1A3xZZ-125" vertex="1">
          <mxGeometry width="30" height="30" as="geometry">
            <mxRectangle width="30" height="30" as="alternateBounds" />
          </mxGeometry>
        </mxCell>
        <mxCell id="fengLA5zBDZJCM1A3xZZ-127" value="&lt;font face=&quot;Aptos, sans-serif&quot;&gt;&lt;span style=&quot;font-size: 16px;&quot;&gt;Date&amp;nbsp; &amp;nbsp; &amp;nbsp; &amp;nbsp; &amp;nbsp; &amp;nbsp; &amp;nbsp; &amp;nbsp; &amp;nbsp;DATE&lt;/span&gt;&lt;/font&gt;&lt;font face=&quot;Aptos, sans-serif&quot;&gt;&lt;span style=&quot;font-size: 16px;&quot;&gt;, NOT NULL&lt;/span&gt;&lt;/font&gt;" style="shape=partialRectangle;connectable=0;fillColor=none;top=0;left=0;bottom=0;right=0;align=left;spacingLeft=6;overflow=hidden;whiteSpace=wrap;html=1;labelBackgroundColor=none;" parent="fengLA5zBDZJCM1A3xZZ-125" vertex="1">
          <mxGeometry x="30" width="440" height="30" as="geometry">
            <mxRectangle width="440" height="30" as="alternateBounds" />
          </mxGeometry>
        </mxCell>
        <mxCell id="fengLA5zBDZJCM1A3xZZ-134" value="" style="shape=tableRow;horizontal=0;startSize=0;swimlaneHead=0;swimlaneBody=0;fillColor=none;collapsible=0;dropTarget=0;points=[[0,0.5],[1,0.5]];portConstraint=eastwest;top=0;left=0;right=0;bottom=0;labelBackgroundColor=none;" parent="fengLA5zBDZJCM1A3xZZ-118" vertex="1">
          <mxGeometry y="120" width="470" height="30" as="geometry" />
        </mxCell>
        <mxCell id="fengLA5zBDZJCM1A3xZZ-135" value="" style="shape=partialRectangle;connectable=0;fillColor=none;top=0;left=0;bottom=0;right=0;editable=1;overflow=hidden;whiteSpace=wrap;html=1;labelBackgroundColor=none;" parent="fengLA5zBDZJCM1A3xZZ-134" vertex="1">
          <mxGeometry width="30" height="30" as="geometry">
            <mxRectangle width="30" height="30" as="alternateBounds" />
          </mxGeometry>
        </mxCell>
        <mxCell id="fengLA5zBDZJCM1A3xZZ-136" value="&lt;span style=&quot;font-size:12.0pt;font-family:&amp;quot;Aptos&amp;quot;,sans-serif;&lt;br/&gt;mso-ascii-theme-font:minor-latin;mso-fareast-font-family:&amp;quot;Times New Roman&amp;quot;;&lt;br/&gt;mso-fareast-theme-font:minor-fareast;mso-hansi-theme-font:minor-latin;&lt;br/&gt;mso-bidi-font-family:Arial;mso-ligatures:none;mso-ansi-language:#4C09;&lt;br/&gt;mso-fareast-language:#4C09;mso-bidi-language:AR-JO&quot;&gt;Country&amp;nbsp; &amp;nbsp; &amp;nbsp; &amp;nbsp; &amp;nbsp; &amp;nbsp;&lt;/span&gt;&lt;span style=&quot;font-family: Aptos, sans-serif; font-size: 16px;&quot;&gt;&amp;nbsp;&lt;/span&gt;&lt;span style=&quot;font-family: Aptos, sans-serif; font-size: 16px;&quot;&gt;VARCHAR(56)&lt;/span&gt;&lt;font face=&quot;Aptos, sans-serif&quot;&gt;&lt;span style=&quot;font-size: 16px;&quot;&gt;, &lt;/span&gt;&lt;/font&gt;&lt;span style=&quot;font-family: Aptos, sans-serif; font-size: 16px;&quot;&gt;DEFAULT(Jordan)&lt;/span&gt;" style="shape=partialRectangle;connectable=0;fillColor=none;top=0;left=0;bottom=0;right=0;align=left;spacingLeft=6;overflow=hidden;whiteSpace=wrap;html=1;labelBackgroundColor=none;" parent="fengLA5zBDZJCM1A3xZZ-134" vertex="1">
          <mxGeometry x="30" width="440" height="30" as="geometry">
            <mxRectangle width="440" height="30" as="alternateBounds" />
          </mxGeometry>
        </mxCell>
        <mxCell id="fengLA5zBDZJCM1A3xZZ-137" value="" style="shape=tableRow;horizontal=0;startSize=0;swimlaneHead=0;swimlaneBody=0;fillColor=none;collapsible=0;dropTarget=0;points=[[0,0.5],[1,0.5]];portConstraint=eastwest;top=0;left=0;right=0;bottom=0;labelBackgroundColor=none;" parent="fengLA5zBDZJCM1A3xZZ-118" vertex="1">
          <mxGeometry y="150" width="470" height="30" as="geometry" />
        </mxCell>
        <mxCell id="fengLA5zBDZJCM1A3xZZ-138" value="" style="shape=partialRectangle;connectable=0;fillColor=none;top=0;left=0;bottom=0;right=0;editable=1;overflow=hidden;whiteSpace=wrap;html=1;labelBackgroundColor=none;" parent="fengLA5zBDZJCM1A3xZZ-137" vertex="1">
          <mxGeometry width="30" height="30" as="geometry">
            <mxRectangle width="30" height="30" as="alternateBounds" />
          </mxGeometry>
        </mxCell>
        <mxCell id="fengLA5zBDZJCM1A3xZZ-139" value="&lt;span style=&quot;font-size:12.0pt;font-family:&amp;quot;Aptos&amp;quot;,sans-serif;&lt;br/&gt;mso-ascii-theme-font:minor-latin;mso-fareast-font-family:&amp;quot;Times New Roman&amp;quot;;&lt;br/&gt;mso-fareast-theme-font:minor-fareast;mso-hansi-theme-font:minor-latin;&lt;br/&gt;mso-bidi-font-family:Arial;mso-ligatures:none;mso-ansi-language:#4C09;&lt;br/&gt;mso-fareast-language:#4C09;mso-bidi-language:AR-JO&quot;&gt;City&amp;nbsp; &amp;nbsp; &amp;nbsp; &amp;nbsp; &amp;nbsp; &amp;nbsp; &amp;nbsp; &amp;nbsp; &amp;nbsp; &amp;nbsp;&lt;/span&gt;&lt;span style=&quot;font-family: Aptos, sans-serif; font-size: 16px;&quot;&gt;VARCHAR(30),&amp;nbsp;&lt;/span&gt;&lt;span style=&quot;font-family: Aptos, sans-serif; font-size: 16px;&quot;&gt;DEFAULT&lt;/span&gt;&lt;span style=&quot;font-family: Aptos, sans-serif; font-size: 16px;&quot;&gt;(Amman)&lt;/span&gt;" style="shape=partialRectangle;connectable=0;fillColor=none;top=0;left=0;bottom=0;right=0;align=left;spacingLeft=6;overflow=hidden;whiteSpace=wrap;html=1;labelBackgroundColor=none;" parent="fengLA5zBDZJCM1A3xZZ-137" vertex="1">
          <mxGeometry x="30" width="440" height="30" as="geometry">
            <mxRectangle width="440" height="30" as="alternateBounds" />
          </mxGeometry>
        </mxCell>
        <mxCell id="fengLA5zBDZJCM1A3xZZ-140" value="" style="shape=tableRow;horizontal=0;startSize=0;swimlaneHead=0;swimlaneBody=0;fillColor=none;collapsible=0;dropTarget=0;points=[[0,0.5],[1,0.5]];portConstraint=eastwest;top=0;left=0;right=0;bottom=0;labelBackgroundColor=none;" parent="fengLA5zBDZJCM1A3xZZ-118" vertex="1">
          <mxGeometry y="180" width="470" height="30" as="geometry" />
        </mxCell>
        <mxCell id="fengLA5zBDZJCM1A3xZZ-141" value="" style="shape=partialRectangle;connectable=0;fillColor=none;top=0;left=0;bottom=0;right=0;editable=1;overflow=hidden;whiteSpace=wrap;html=1;labelBackgroundColor=none;" parent="fengLA5zBDZJCM1A3xZZ-140" vertex="1">
          <mxGeometry width="30" height="30" as="geometry">
            <mxRectangle width="30" height="30" as="alternateBounds" />
          </mxGeometry>
        </mxCell>
        <mxCell id="fengLA5zBDZJCM1A3xZZ-142" value="&lt;span style=&quot;font-size:12.0pt;font-family:&amp;quot;Aptos&amp;quot;,sans-serif;&lt;br/&gt;mso-ascii-theme-font:minor-latin;mso-fareast-font-family:&amp;quot;Times New Roman&amp;quot;;&lt;br/&gt;mso-fareast-theme-font:minor-fareast;mso-hansi-theme-font:minor-latin;&lt;br/&gt;mso-bidi-font-family:Arial;mso-ligatures:none;mso-ansi-language:#4C09;&lt;br/&gt;mso-fareast-language:#4C09;mso-bidi-language:AR-JO&quot;&gt;Street_name&amp;nbsp; &amp;nbsp; &amp;nbsp;&amp;nbsp;&lt;/span&gt;&lt;span style=&quot;font-family: Aptos, sans-serif; font-size: 16px;&quot;&gt;VARCHAR(30), NOT NULL&lt;/span&gt;" style="shape=partialRectangle;connectable=0;fillColor=none;top=0;left=0;bottom=0;right=0;align=left;spacingLeft=6;overflow=hidden;whiteSpace=wrap;html=1;labelBackgroundColor=none;" parent="fengLA5zBDZJCM1A3xZZ-140" vertex="1">
          <mxGeometry x="30" width="440" height="30" as="geometry">
            <mxRectangle width="440" height="30" as="alternateBounds" />
          </mxGeometry>
        </mxCell>
        <mxCell id="fengLA5zBDZJCM1A3xZZ-143" value="" style="shape=tableRow;horizontal=0;startSize=0;swimlaneHead=0;swimlaneBody=0;fillColor=none;collapsible=0;dropTarget=0;points=[[0,0.5],[1,0.5]];portConstraint=eastwest;top=0;left=0;right=0;bottom=0;labelBackgroundColor=none;" parent="fengLA5zBDZJCM1A3xZZ-118" vertex="1">
          <mxGeometry y="210" width="470" height="30" as="geometry" />
        </mxCell>
        <mxCell id="fengLA5zBDZJCM1A3xZZ-144" value="" style="shape=partialRectangle;connectable=0;fillColor=none;top=0;left=0;bottom=0;right=0;editable=1;overflow=hidden;whiteSpace=wrap;html=1;labelBackgroundColor=none;" parent="fengLA5zBDZJCM1A3xZZ-143" vertex="1">
          <mxGeometry width="30" height="30" as="geometry">
            <mxRectangle width="30" height="30" as="alternateBounds" />
          </mxGeometry>
        </mxCell>
        <mxCell id="fengLA5zBDZJCM1A3xZZ-145" value="&lt;span style=&quot;font-family: Aptos, sans-serif; font-size: 16px;&quot;&gt;Building_Number&amp;nbsp; &amp;nbsp; VARCHAR(10), NOT NULL&lt;/span&gt;" style="shape=partialRectangle;connectable=0;fillColor=none;top=0;left=0;bottom=0;right=0;align=left;spacingLeft=6;overflow=hidden;whiteSpace=wrap;html=1;labelBackgroundColor=none;" parent="fengLA5zBDZJCM1A3xZZ-143" vertex="1">
          <mxGeometry x="30" width="440" height="30" as="geometry">
            <mxRectangle width="440" height="30" as="alternateBounds" />
          </mxGeometry>
        </mxCell>
        <mxCell id="fengLA5zBDZJCM1A3xZZ-146" value="" style="shape=tableRow;horizontal=0;startSize=0;swimlaneHead=0;swimlaneBody=0;fillColor=none;collapsible=0;dropTarget=0;points=[[0,0.5],[1,0.5]];portConstraint=eastwest;top=0;left=0;right=0;bottom=0;labelBackgroundColor=none;" parent="fengLA5zBDZJCM1A3xZZ-118" vertex="1">
          <mxGeometry y="240" width="470" height="30" as="geometry" />
        </mxCell>
        <mxCell id="fengLA5zBDZJCM1A3xZZ-147" value="" style="shape=partialRectangle;connectable=0;fillColor=none;top=0;left=0;bottom=0;right=0;editable=1;overflow=hidden;whiteSpace=wrap;html=1;labelBackgroundColor=none;" parent="fengLA5zBDZJCM1A3xZZ-146" vertex="1">
          <mxGeometry width="30" height="30" as="geometry">
            <mxRectangle width="30" height="30" as="alternateBounds" />
          </mxGeometry>
        </mxCell>
        <mxCell id="fengLA5zBDZJCM1A3xZZ-148" value="&lt;span style=&quot;font-size:12.0pt;font-family:&amp;quot;Aptos&amp;quot;,sans-serif;&lt;br/&gt;mso-ascii-theme-font:minor-latin;mso-fareast-font-family:&amp;quot;Times New Roman&amp;quot;;&lt;br/&gt;mso-fareast-theme-font:minor-fareast;mso-hansi-theme-font:minor-latin;&lt;br/&gt;mso-bidi-font-family:Arial;mso-ligatures:none;mso-ansi-language:#4C09;&lt;br/&gt;mso-fareast-language:#4C09;mso-bidi-language:AR-JO&quot;&gt;Number_of_Donations&amp;nbsp; &amp;nbsp; &amp;nbsp;INT&lt;/span&gt;" style="shape=partialRectangle;connectable=0;fillColor=none;top=0;left=0;bottom=0;right=0;align=left;spacingLeft=6;overflow=hidden;whiteSpace=wrap;html=1;labelBackgroundColor=none;" parent="fengLA5zBDZJCM1A3xZZ-146" vertex="1">
          <mxGeometry x="30" width="440" height="30" as="geometry">
            <mxRectangle width="440" height="30" as="alternateBounds" />
          </mxGeometry>
        </mxCell>
        <mxCell id="K_2BFZIMDn82E9H1q4dq-1" value="" style="shape=tableRow;horizontal=0;startSize=0;swimlaneHead=0;swimlaneBody=0;fillColor=none;collapsible=0;dropTarget=0;points=[[0,0.5],[1,0.5]];portConstraint=eastwest;top=0;left=0;right=0;bottom=0;labelBackgroundColor=none;" parent="fengLA5zBDZJCM1A3xZZ-118" vertex="1">
          <mxGeometry y="270" width="470" height="30" as="geometry" />
        </mxCell>
        <mxCell id="K_2BFZIMDn82E9H1q4dq-2" value="" style="shape=partialRectangle;connectable=0;fillColor=none;top=0;left=0;bottom=0;right=0;editable=1;overflow=hidden;whiteSpace=wrap;html=1;labelBackgroundColor=none;" parent="K_2BFZIMDn82E9H1q4dq-1" vertex="1">
          <mxGeometry width="30" height="30" as="geometry">
            <mxRectangle width="30" height="30" as="alternateBounds" />
          </mxGeometry>
        </mxCell>
        <mxCell id="K_2BFZIMDn82E9H1q4dq-3" value="&lt;span style=&quot;font-family: Aptos, sans-serif; font-size: 16px;&quot;&gt;Organizer_First_Name&amp;nbsp; &amp;nbsp; &amp;nbsp;&lt;/span&gt;&lt;span style=&quot;font-size: 16px;&quot;&gt;VARCHAR(10), NOT NULL&lt;/span&gt;" style="shape=partialRectangle;connectable=0;fillColor=none;top=0;left=0;bottom=0;right=0;align=left;spacingLeft=6;overflow=hidden;whiteSpace=wrap;html=1;labelBackgroundColor=none;" parent="K_2BFZIMDn82E9H1q4dq-1" vertex="1">
          <mxGeometry x="30" width="440" height="30" as="geometry">
            <mxRectangle width="440" height="30" as="alternateBounds" />
          </mxGeometry>
        </mxCell>
        <mxCell id="K_2BFZIMDn82E9H1q4dq-4" value="" style="shape=tableRow;horizontal=0;startSize=0;swimlaneHead=0;swimlaneBody=0;fillColor=none;collapsible=0;dropTarget=0;points=[[0,0.5],[1,0.5]];portConstraint=eastwest;top=0;left=0;right=0;bottom=0;labelBackgroundColor=none;" parent="fengLA5zBDZJCM1A3xZZ-118" vertex="1">
          <mxGeometry y="300" width="470" height="30" as="geometry" />
        </mxCell>
        <mxCell id="K_2BFZIMDn82E9H1q4dq-5" value="" style="shape=partialRectangle;connectable=0;fillColor=none;top=0;left=0;bottom=0;right=0;editable=1;overflow=hidden;whiteSpace=wrap;html=1;labelBackgroundColor=none;" parent="K_2BFZIMDn82E9H1q4dq-4" vertex="1">
          <mxGeometry width="30" height="30" as="geometry">
            <mxRectangle width="30" height="30" as="alternateBounds" />
          </mxGeometry>
        </mxCell>
        <mxCell id="K_2BFZIMDn82E9H1q4dq-6" value="&lt;span style=&quot;font-family: Aptos, sans-serif; font-size: 16px;&quot;&gt;Organizer_Last_Name&amp;nbsp; &amp;nbsp; &amp;nbsp;&lt;/span&gt;&lt;span style=&quot;font-size: 16px;&quot;&gt;VARCHAR(10), NOT NULL&lt;/span&gt;" style="shape=partialRectangle;connectable=0;fillColor=none;top=0;left=0;bottom=0;right=0;align=left;spacingLeft=6;overflow=hidden;whiteSpace=wrap;html=1;labelBackgroundColor=none;" parent="K_2BFZIMDn82E9H1q4dq-4" vertex="1">
          <mxGeometry x="30" width="440" height="30" as="geometry">
            <mxRectangle width="440" height="30" as="alternateBounds" />
          </mxGeometry>
        </mxCell>
        <mxCell id="fengLA5zBDZJCM1A3xZZ-14" value="&lt;b&gt;&lt;span style=&quot;font-size:12.0pt;font-family:&amp;quot;Aptos&amp;quot;,sans-serif;&lt;br/&gt;mso-ascii-theme-font:minor-latin;mso-fareast-font-family:&amp;quot;Times New Roman&amp;quot;;&lt;br/&gt;mso-fareast-theme-font:minor-fareast;mso-hansi-theme-font:minor-latin;&lt;br/&gt;mso-bidi-font-family:Arial;mso-ligatures:none;mso-ansi-language:#4C09;&lt;br/&gt;mso-fareast-language:#4C09;mso-bidi-language:AR-JO&quot;&gt;Donation&lt;/span&gt;&lt;span style=&quot;font-size:12.0pt;font-family:&amp;quot;Aptos&amp;quot;,sans-serif;mso-ascii-theme-font:&lt;br/&gt;minor-latin;mso-fareast-font-family:&amp;quot;Times New Roman&amp;quot;;mso-fareast-theme-font:&lt;br/&gt;minor-fareast;mso-hansi-theme-font:minor-latin;mso-bidi-font-family:Arial;&lt;br/&gt;mso-ligatures:none;mso-ansi-language:EN-US;mso-fareast-language:#4C09;&lt;br/&gt;mso-bidi-language:AR-JO&quot;&gt;&lt;/span&gt;&lt;/b&gt;" style="shape=table;startSize=30;container=1;collapsible=1;childLayout=tableLayout;fixedRows=1;rowLines=0;fontStyle=1;align=center;resizeLast=1;html=1;labelBackgroundColor=none;" parent="1" vertex="1">
          <mxGeometry x="-800" y="760" width="450" height="200" as="geometry" />
        </mxCell>
        <mxCell id="fengLA5zBDZJCM1A3xZZ-15" value="" style="shape=tableRow;horizontal=0;startSize=0;swimlaneHead=0;swimlaneBody=0;fillColor=none;collapsible=0;dropTarget=0;points=[[0,0.5],[1,0.5]];portConstraint=eastwest;top=0;left=0;right=0;bottom=1;labelBackgroundColor=none;" parent="fengLA5zBDZJCM1A3xZZ-14" vertex="1">
          <mxGeometry y="30" width="450" height="30" as="geometry" />
        </mxCell>
        <mxCell id="fengLA5zBDZJCM1A3xZZ-16" value="PK" style="shape=partialRectangle;connectable=0;fillColor=none;top=0;left=0;bottom=0;right=0;fontStyle=1;overflow=hidden;whiteSpace=wrap;html=1;labelBackgroundColor=none;" parent="fengLA5zBDZJCM1A3xZZ-15" vertex="1">
          <mxGeometry width="30" height="30" as="geometry">
            <mxRectangle width="30" height="30" as="alternateBounds" />
          </mxGeometry>
        </mxCell>
        <mxCell id="fengLA5zBDZJCM1A3xZZ-17" value="&lt;u&gt;&lt;span style=&quot;font-size:12.0pt;&lt;br/&gt;font-family:&amp;quot;Aptos&amp;quot;,sans-serif;mso-ascii-theme-font:minor-latin;mso-fareast-font-family:&lt;br/&gt;&amp;quot;Times New Roman&amp;quot;;mso-fareast-theme-font:minor-fareast;mso-hansi-theme-font:&lt;br/&gt;minor-latin;mso-bidi-font-family:Arial;mso-ligatures:none;mso-ansi-language:&lt;br/&gt;EN-US;mso-fareast-language:#4C09;mso-bidi-language:AR-JO&quot; lang=&quot;EN-US&quot;&gt;Donation_ID&amp;nbsp; &amp;nbsp;INT&lt;/span&gt;&lt;/u&gt;" style="shape=partialRectangle;connectable=0;fillColor=none;top=0;left=0;bottom=0;right=0;align=left;spacingLeft=6;fontStyle=5;overflow=hidden;whiteSpace=wrap;html=1;labelBackgroundColor=none;" parent="fengLA5zBDZJCM1A3xZZ-15" vertex="1">
          <mxGeometry x="30" width="420" height="30" as="geometry">
            <mxRectangle width="420" height="30" as="alternateBounds" />
          </mxGeometry>
        </mxCell>
        <mxCell id="fengLA5zBDZJCM1A3xZZ-18" value="" style="shape=tableRow;horizontal=0;startSize=0;swimlaneHead=0;swimlaneBody=0;fillColor=none;collapsible=0;dropTarget=0;points=[[0,0.5],[1,0.5]];portConstraint=eastwest;top=0;left=0;right=0;bottom=0;labelBackgroundColor=none;" parent="fengLA5zBDZJCM1A3xZZ-14" vertex="1">
          <mxGeometry y="60" width="450" height="30" as="geometry" />
        </mxCell>
        <mxCell id="fengLA5zBDZJCM1A3xZZ-19" value="FK" style="shape=partialRectangle;connectable=0;fillColor=none;top=0;left=0;bottom=0;right=0;editable=1;overflow=hidden;whiteSpace=wrap;html=1;labelBackgroundColor=none;" parent="fengLA5zBDZJCM1A3xZZ-18" vertex="1">
          <mxGeometry width="30" height="30" as="geometry">
            <mxRectangle width="30" height="30" as="alternateBounds" />
          </mxGeometry>
        </mxCell>
        <mxCell id="fengLA5zBDZJCM1A3xZZ-20" value="&lt;span style=&quot;font-family: Aptos, sans-serif; font-size: 16px;&quot;&gt;&lt;font style=&quot;color: rgb(0, 0, 0);&quot;&gt;Donor_ID&amp;nbsp; &amp;nbsp; INT, NOT NULL&lt;/font&gt;&lt;/span&gt;" style="shape=partialRectangle;connectable=0;fillColor=none;top=0;left=0;bottom=0;right=0;align=left;spacingLeft=6;overflow=hidden;whiteSpace=wrap;html=1;labelBackgroundColor=none;" parent="fengLA5zBDZJCM1A3xZZ-18" vertex="1">
          <mxGeometry x="30" width="420" height="30" as="geometry">
            <mxRectangle width="420" height="30" as="alternateBounds" />
          </mxGeometry>
        </mxCell>
        <mxCell id="fengLA5zBDZJCM1A3xZZ-21" value="" style="shape=tableRow;horizontal=0;startSize=0;swimlaneHead=0;swimlaneBody=0;fillColor=none;collapsible=0;dropTarget=0;points=[[0,0.5],[1,0.5]];portConstraint=eastwest;top=0;left=0;right=0;bottom=0;labelBackgroundColor=none;" parent="fengLA5zBDZJCM1A3xZZ-14" vertex="1">
          <mxGeometry y="90" width="450" height="30" as="geometry" />
        </mxCell>
        <mxCell id="fengLA5zBDZJCM1A3xZZ-22" value="FK" style="shape=partialRectangle;connectable=0;fillColor=none;top=0;left=0;bottom=0;right=0;editable=1;overflow=hidden;whiteSpace=wrap;html=1;labelBackgroundColor=none;" parent="fengLA5zBDZJCM1A3xZZ-21" vertex="1">
          <mxGeometry width="30" height="30" as="geometry">
            <mxRectangle width="30" height="30" as="alternateBounds" />
          </mxGeometry>
        </mxCell>
        <mxCell id="fengLA5zBDZJCM1A3xZZ-23" value="&lt;font&gt;&lt;span style=&quot;font-size: 16px;&quot;&gt;&lt;font style=&quot;&quot;&gt;Event_ID&lt;/font&gt;&lt;/span&gt;&lt;span style=&quot;font-family: Aptos, sans-serif; font-size: 16px;&quot;&gt;&amp;nbsp; &amp;nbsp; INT, NOT NULL&lt;/span&gt;&lt;/font&gt;" style="shape=partialRectangle;connectable=0;fillColor=none;top=0;left=0;bottom=0;right=0;align=left;spacingLeft=6;overflow=hidden;whiteSpace=wrap;html=1;labelBackgroundColor=none;" parent="fengLA5zBDZJCM1A3xZZ-21" vertex="1">
          <mxGeometry x="30" width="420" height="30" as="geometry">
            <mxRectangle width="420" height="30" as="alternateBounds" />
          </mxGeometry>
        </mxCell>
        <mxCell id="fengLA5zBDZJCM1A3xZZ-24" value="" style="shape=tableRow;horizontal=0;startSize=0;swimlaneHead=0;swimlaneBody=0;fillColor=none;collapsible=0;dropTarget=0;points=[[0,0.5],[1,0.5]];portConstraint=eastwest;top=0;left=0;right=0;bottom=0;labelBackgroundColor=none;" parent="fengLA5zBDZJCM1A3xZZ-14" vertex="1">
          <mxGeometry y="120" width="450" height="50" as="geometry" />
        </mxCell>
        <mxCell id="fengLA5zBDZJCM1A3xZZ-25" value="" style="shape=partialRectangle;connectable=0;fillColor=none;top=0;left=0;bottom=0;right=0;editable=1;overflow=hidden;whiteSpace=wrap;html=1;labelBackgroundColor=none;" parent="fengLA5zBDZJCM1A3xZZ-24" vertex="1">
          <mxGeometry width="30" height="50" as="geometry">
            <mxRectangle width="30" height="50" as="alternateBounds" />
          </mxGeometry>
        </mxCell>
        <mxCell id="fengLA5zBDZJCM1A3xZZ-26" value="&lt;span&gt;&lt;font&gt;&lt;span style=&quot;font-size: 16px;&quot;&gt;Donation_Amount&amp;nbsp;&amp;nbsp;&lt;/span&gt;&lt;font face=&quot;Aptos, sans-serif&quot;&gt;&lt;span style=&quot;font-size: 16px;&quot;&gt;DECIMAL(10,3), NOT NULL,&amp;nbsp;&lt;/span&gt;&lt;/font&gt;&lt;/font&gt;&lt;/span&gt;&lt;font face=&quot;Aptos, sans-serif&quot;&gt;&lt;span style=&quot;font-size: 16px;&quot;&gt;CHECK (Donation_Amount &amp;gt; 0)&lt;/span&gt;&lt;/font&gt;" style="shape=partialRectangle;connectable=0;fillColor=none;top=0;left=0;bottom=0;right=0;align=left;spacingLeft=6;overflow=hidden;whiteSpace=wrap;html=1;labelBackgroundColor=none;" parent="fengLA5zBDZJCM1A3xZZ-24" vertex="1">
          <mxGeometry x="30" width="420" height="50" as="geometry">
            <mxRectangle width="420" height="50" as="alternateBounds" />
          </mxGeometry>
        </mxCell>
        <mxCell id="-_xuoGMP2o_dF_FFNVSF-1" value="" style="shape=tableRow;horizontal=0;startSize=0;swimlaneHead=0;swimlaneBody=0;fillColor=none;collapsible=0;dropTarget=0;points=[[0,0.5],[1,0.5]];portConstraint=eastwest;top=0;left=0;right=0;bottom=0;labelBackgroundColor=none;" parent="fengLA5zBDZJCM1A3xZZ-14" vertex="1">
          <mxGeometry y="170" width="450" height="30" as="geometry" />
        </mxCell>
        <mxCell id="-_xuoGMP2o_dF_FFNVSF-2" value="" style="shape=partialRectangle;connectable=0;fillColor=none;top=0;left=0;bottom=0;right=0;editable=1;overflow=hidden;whiteSpace=wrap;html=1;labelBackgroundColor=none;" parent="-_xuoGMP2o_dF_FFNVSF-1" vertex="1">
          <mxGeometry width="30" height="30" as="geometry">
            <mxRectangle width="30" height="30" as="alternateBounds" />
          </mxGeometry>
        </mxCell>
        <mxCell id="-_xuoGMP2o_dF_FFNVSF-3" value="&lt;span style=&quot;font-family: Aptos, sans-serif; font-size: 16px;&quot;&gt;Payment_Method&amp;nbsp; &amp;nbsp;VARCHAR(20), NOT NULL&lt;/span&gt;" style="shape=partialRectangle;connectable=0;fillColor=none;top=0;left=0;bottom=0;right=0;align=left;spacingLeft=6;overflow=hidden;whiteSpace=wrap;html=1;labelBackgroundColor=none;" parent="-_xuoGMP2o_dF_FFNVSF-1" vertex="1">
          <mxGeometry x="30" width="420" height="30" as="geometry">
            <mxRectangle width="420" height="30" as="alternateBounds" />
          </mxGeometry>
        </mxCell>
        <mxCell id="-_xuoGMP2o_dF_FFNVSF-74" value="&lt;b&gt;&lt;span style=&quot;font-size:12.0pt;font-family:&amp;quot;Aptos&amp;quot;,sans-serif;&lt;br/&gt;mso-ascii-theme-font:minor-latin;mso-fareast-font-family:&amp;quot;Times New Roman&amp;quot;;&lt;br/&gt;mso-fareast-theme-font:minor-fareast;mso-hansi-theme-font:minor-latin;&lt;br/&gt;mso-bidi-font-family:Arial;mso-ligatures:none;mso-ansi-language:#4C09;&lt;br/&gt;mso-fareast-language:#4C09;mso-bidi-language:AR-JO&quot;&gt;Event_Donor&lt;/span&gt;&lt;/b&gt;&lt;span style=&quot;font-size:12.0pt;font-family:&amp;quot;Aptos&amp;quot;,sans-serif;mso-ascii-theme-font:&lt;br/&gt;minor-latin;mso-fareast-font-family:&amp;quot;Times New Roman&amp;quot;;mso-fareast-theme-font:&lt;br/&gt;minor-fareast;mso-hansi-theme-font:minor-latin;mso-bidi-font-family:Arial;&lt;br/&gt;mso-ligatures:none;mso-ansi-language:#4C09;mso-fareast-language:#4C09;&lt;br/&gt;mso-bidi-language:AR-JO&quot;&gt;&lt;/span&gt;" style="shape=table;startSize=30;container=1;collapsible=1;childLayout=tableLayout;fixedRows=1;rowLines=0;fontStyle=1;align=center;resizeLast=1;html=1;whiteSpace=wrap;labelBackgroundColor=none;" parent="1" vertex="1">
          <mxGeometry x="-620" y="420" width="280" height="90" as="geometry" />
        </mxCell>
        <mxCell id="-_xuoGMP2o_dF_FFNVSF-75" value="" style="shape=tableRow;horizontal=0;startSize=0;swimlaneHead=0;swimlaneBody=0;fillColor=none;collapsible=0;dropTarget=0;points=[[0,0.5],[1,0.5]];portConstraint=eastwest;top=0;left=0;right=0;bottom=0;html=1;labelBackgroundColor=none;" parent="-_xuoGMP2o_dF_FFNVSF-74" vertex="1">
          <mxGeometry y="30" width="280" height="30" as="geometry" />
        </mxCell>
        <mxCell id="-_xuoGMP2o_dF_FFNVSF-76" value="PK,FK" style="shape=partialRectangle;connectable=0;fillColor=none;top=0;left=0;bottom=0;right=0;fontStyle=1;overflow=hidden;html=1;whiteSpace=wrap;labelBackgroundColor=none;" parent="-_xuoGMP2o_dF_FFNVSF-75" vertex="1">
          <mxGeometry width="60" height="30" as="geometry">
            <mxRectangle width="60" height="30" as="alternateBounds" />
          </mxGeometry>
        </mxCell>
        <mxCell id="-_xuoGMP2o_dF_FFNVSF-77" value="&lt;u&gt;&lt;span style=&quot;font-size: 12pt; font-family: Aptos, sans-serif;&quot; lang=&quot;EN-US&quot;&gt;Event_ID&amp;nbsp; &amp;nbsp; INT, NOT NULL&lt;/span&gt;&lt;/u&gt;" style="shape=partialRectangle;connectable=0;fillColor=none;top=0;left=0;bottom=0;right=0;align=left;spacingLeft=6;fontStyle=5;overflow=hidden;html=1;whiteSpace=wrap;labelBackgroundColor=none;" parent="-_xuoGMP2o_dF_FFNVSF-75" vertex="1">
          <mxGeometry x="60" width="220" height="30" as="geometry">
            <mxRectangle width="220" height="30" as="alternateBounds" />
          </mxGeometry>
        </mxCell>
        <mxCell id="-_xuoGMP2o_dF_FFNVSF-78" value="" style="shape=tableRow;horizontal=0;startSize=0;swimlaneHead=0;swimlaneBody=0;fillColor=none;collapsible=0;dropTarget=0;points=[[0,0.5],[1,0.5]];portConstraint=eastwest;top=0;left=0;right=0;bottom=1;html=1;labelBackgroundColor=none;" parent="-_xuoGMP2o_dF_FFNVSF-74" vertex="1">
          <mxGeometry y="60" width="280" height="30" as="geometry" />
        </mxCell>
        <mxCell id="-_xuoGMP2o_dF_FFNVSF-79" value="PK,FK" style="shape=partialRectangle;connectable=0;fillColor=none;top=0;left=0;bottom=0;right=0;fontStyle=1;overflow=hidden;html=1;whiteSpace=wrap;labelBackgroundColor=none;" parent="-_xuoGMP2o_dF_FFNVSF-78" vertex="1">
          <mxGeometry width="60" height="30" as="geometry">
            <mxRectangle width="60" height="30" as="alternateBounds" />
          </mxGeometry>
        </mxCell>
        <mxCell id="-_xuoGMP2o_dF_FFNVSF-80" value="&lt;u&gt;&lt;span style=&quot;font-size: 12pt; font-family: Aptos, sans-serif;&quot; lang=&quot;EN-US&quot;&gt;Donor_ID&lt;/span&gt;&lt;/u&gt;&lt;u&gt;&lt;span style=&quot;font-size: 12pt; font-family: Aptos, sans-serif;&quot; lang=&quot;EN-US&quot;&gt;&amp;nbsp; &amp;nbsp; INT, NOT NULL&lt;/span&gt;&lt;/u&gt;" style="shape=partialRectangle;connectable=0;fillColor=none;top=0;left=0;bottom=0;right=0;align=left;spacingLeft=6;fontStyle=5;overflow=hidden;html=1;whiteSpace=wrap;labelBackgroundColor=none;" parent="-_xuoGMP2o_dF_FFNVSF-78" vertex="1">
          <mxGeometry x="60" width="220" height="30" as="geometry">
            <mxRectangle width="220" height="30" as="alternateBounds" />
          </mxGeometry>
        </mxCell>
        <mxCell id="-_xuoGMP2o_dF_FFNVSF-106" value="&lt;b&gt;&lt;span style=&quot;font-size:12.0pt;font-family:&amp;quot;Aptos&amp;quot;,sans-serif;&lt;br/&gt;mso-ascii-theme-font:minor-latin;mso-fareast-font-family:&amp;quot;Times New Roman&amp;quot;;&lt;br/&gt;mso-fareast-theme-font:minor-fareast;mso-hansi-theme-font:minor-latin;&lt;br/&gt;mso-bidi-font-family:Arial;mso-ligatures:none;mso-ansi-language:#4C09;&lt;br/&gt;mso-fareast-language:#4C09;mso-bidi-language:AR-JO&quot;&gt;Event_Volunteer&lt;/span&gt;&lt;/b&gt;&lt;span style=&quot;font-size:12.0pt;font-family:&amp;quot;Aptos&amp;quot;,sans-serif;mso-ascii-theme-font:&lt;br/&gt;minor-latin;mso-fareast-font-family:&amp;quot;Times New Roman&amp;quot;;mso-fareast-theme-font:&lt;br/&gt;minor-fareast;mso-hansi-theme-font:minor-latin;mso-bidi-font-family:Arial;&lt;br/&gt;mso-ligatures:none;mso-ansi-language:#4C09;mso-fareast-language:#4C09;&lt;br/&gt;mso-bidi-language:AR-JO&quot;&gt;&lt;/span&gt;" style="shape=table;startSize=30;container=1;collapsible=1;childLayout=tableLayout;fixedRows=1;rowLines=0;fontStyle=1;align=center;resizeLast=1;html=1;whiteSpace=wrap;labelBackgroundColor=none;" parent="1" vertex="1">
          <mxGeometry x="850" y="450" width="310" height="130" as="geometry" />
        </mxCell>
        <mxCell id="-_xuoGMP2o_dF_FFNVSF-107" value="" style="shape=tableRow;horizontal=0;startSize=0;swimlaneHead=0;swimlaneBody=0;fillColor=none;collapsible=0;dropTarget=0;points=[[0,0.5],[1,0.5]];portConstraint=eastwest;top=0;left=0;right=0;bottom=0;html=1;labelBackgroundColor=none;" parent="-_xuoGMP2o_dF_FFNVSF-106" vertex="1">
          <mxGeometry y="30" width="310" height="30" as="geometry" />
        </mxCell>
        <mxCell id="-_xuoGMP2o_dF_FFNVSF-108" value="PK,FK" style="shape=partialRectangle;connectable=0;fillColor=none;top=0;left=0;bottom=0;right=0;fontStyle=1;overflow=hidden;html=1;whiteSpace=wrap;labelBackgroundColor=none;" parent="-_xuoGMP2o_dF_FFNVSF-107" vertex="1">
          <mxGeometry width="60" height="30" as="geometry">
            <mxRectangle width="60" height="30" as="alternateBounds" />
          </mxGeometry>
        </mxCell>
        <mxCell id="-_xuoGMP2o_dF_FFNVSF-109" value="&lt;u&gt;&lt;span style=&quot;font-size: 12pt; font-family: Aptos, sans-serif;&quot; lang=&quot;EN-US&quot;&gt;Event_ID&amp;nbsp; &amp;nbsp; INT, NOT NULL&lt;/span&gt;&lt;/u&gt;" style="shape=partialRectangle;connectable=0;fillColor=none;top=0;left=0;bottom=0;right=0;align=left;spacingLeft=6;fontStyle=5;overflow=hidden;html=1;whiteSpace=wrap;labelBackgroundColor=none;" parent="-_xuoGMP2o_dF_FFNVSF-107" vertex="1">
          <mxGeometry x="60" width="250" height="30" as="geometry">
            <mxRectangle width="250" height="30" as="alternateBounds" />
          </mxGeometry>
        </mxCell>
        <mxCell id="-_xuoGMP2o_dF_FFNVSF-110" value="" style="shape=tableRow;horizontal=0;startSize=0;swimlaneHead=0;swimlaneBody=0;fillColor=none;collapsible=0;dropTarget=0;points=[[0,0.5],[1,0.5]];portConstraint=eastwest;top=0;left=0;right=0;bottom=1;html=1;labelBackgroundColor=none;" parent="-_xuoGMP2o_dF_FFNVSF-106" vertex="1">
          <mxGeometry y="60" width="310" height="30" as="geometry" />
        </mxCell>
        <mxCell id="-_xuoGMP2o_dF_FFNVSF-111" value="PK,FK" style="shape=partialRectangle;connectable=0;fillColor=none;top=0;left=0;bottom=0;right=0;fontStyle=1;overflow=hidden;html=1;whiteSpace=wrap;labelBackgroundColor=none;" parent="-_xuoGMP2o_dF_FFNVSF-110" vertex="1">
          <mxGeometry width="60" height="30" as="geometry">
            <mxRectangle width="60" height="30" as="alternateBounds" />
          </mxGeometry>
        </mxCell>
        <mxCell id="-_xuoGMP2o_dF_FFNVSF-112" value="&lt;u style=&quot;&quot;&gt;&lt;span style=&quot;font-size: 12pt; font-family: Aptos, sans-serif;&quot;&gt;Volunteer_ID&lt;/span&gt;&lt;/u&gt;&lt;u&gt;&lt;span style=&quot;font-size: 12pt; font-family: Aptos, sans-serif;&quot; lang=&quot;EN-US&quot;&gt;&amp;nbsp; &amp;nbsp; INT, NOT NULL&lt;/span&gt;&lt;/u&gt;" style="shape=partialRectangle;connectable=0;fillColor=none;top=0;left=0;bottom=0;right=0;align=left;spacingLeft=6;fontStyle=5;overflow=hidden;html=1;whiteSpace=wrap;labelBackgroundColor=none;" parent="-_xuoGMP2o_dF_FFNVSF-110" vertex="1">
          <mxGeometry x="60" width="250" height="30" as="geometry">
            <mxRectangle width="250" height="30" as="alternateBounds" />
          </mxGeometry>
        </mxCell>
        <mxCell id="-_xuoGMP2o_dF_FFNVSF-113" value="" style="shape=tableRow;horizontal=0;startSize=0;swimlaneHead=0;swimlaneBody=0;fillColor=none;collapsible=0;dropTarget=0;points=[[0,0.5],[1,0.5]];portConstraint=eastwest;top=0;left=0;right=0;bottom=0;html=1;labelBackgroundColor=none;" parent="-_xuoGMP2o_dF_FFNVSF-106" vertex="1">
          <mxGeometry y="90" width="310" height="40" as="geometry" />
        </mxCell>
        <mxCell id="-_xuoGMP2o_dF_FFNVSF-114" value="" style="shape=partialRectangle;connectable=0;fillColor=none;top=0;left=0;bottom=0;right=0;editable=1;overflow=hidden;html=1;whiteSpace=wrap;labelBackgroundColor=none;" parent="-_xuoGMP2o_dF_FFNVSF-113" vertex="1">
          <mxGeometry width="60" height="40" as="geometry">
            <mxRectangle width="60" height="40" as="alternateBounds" />
          </mxGeometry>
        </mxCell>
        <mxCell id="-_xuoGMP2o_dF_FFNVSF-115" value="&lt;span style=&quot;font-size:12.0pt;font-family:&amp;quot;Aptos&amp;quot;,sans-serif;&lt;br/&gt;mso-ascii-theme-font:minor-latin;mso-fareast-font-family:&amp;quot;Times New Roman&amp;quot;;&lt;br/&gt;mso-fareast-theme-font:minor-fareast;mso-hansi-theme-font:minor-latin;&lt;br/&gt;mso-bidi-font-family:Arial;mso-ligatures:none;mso-ansi-language:#4C09;&lt;br/&gt;mso-fareast-language:#4C09;mso-bidi-language:AR-JO&quot;&gt;Role&amp;nbsp; &amp;nbsp; &amp;nbsp; TEXT,&amp;nbsp;&lt;/span&gt;&lt;span style=&quot;font-size: 12pt; font-family: Aptos, sans-serif;&quot; lang=&quot;EN-US&quot;&gt;NOT NULL&lt;/span&gt;" style="shape=partialRectangle;connectable=0;fillColor=none;top=0;left=0;bottom=0;right=0;align=left;spacingLeft=6;overflow=hidden;html=1;whiteSpace=wrap;labelBackgroundColor=none;" parent="-_xuoGMP2o_dF_FFNVSF-113" vertex="1">
          <mxGeometry x="60" width="250" height="40" as="geometry">
            <mxRectangle width="250" height="40" as="alternateBounds" />
          </mxGeometry>
        </mxCell>
        <mxCell id="-_xuoGMP2o_dF_FFNVSF-116" value="" style="fontSize=12;html=1;endArrow=ERoneToMany;rounded=0;startArrow=ERmandOne;startFill=0;exitX=-0.001;exitY=0.126;exitDx=0;exitDy=0;endFill=0;edgeStyle=orthogonalEdgeStyle;dashed=1;entryX=0;entryY=0.5;entryDx=0;entryDy=0;exitPerimeter=0;labelBackgroundColor=none;fontColor=default;" parent="1" source="fengLA5zBDZJCM1A3xZZ-119" target="fengLA5zBDZJCM1A3xZZ-21" edge="1">
          <mxGeometry width="100" height="100" relative="1" as="geometry">
            <mxPoint x="-20" y="115" as="sourcePoint" />
            <mxPoint x="-800" y="810" as="targetPoint" />
            <Array as="points">
              <mxPoint x="-830" y="109" />
              <mxPoint x="-830" y="865" />
            </Array>
          </mxGeometry>
        </mxCell>
        <mxCell id="-_xuoGMP2o_dF_FFNVSF-122" value="&lt;span style=&quot;font-size: 20pt; background-color: light-dark(#ffffff, var(--ge-dark-color, #121212));&quot; lang=&quot;EN-US&quot;&gt;Includes&lt;/span&gt;" style="edgeLabel;html=1;align=center;verticalAlign=middle;resizable=0;points=[];labelBackgroundColor=none;" parent="-_xuoGMP2o_dF_FFNVSF-116" vertex="1" connectable="0">
          <mxGeometry x="0.1482" y="2" relative="1" as="geometry">
            <mxPoint x="78" y="-131" as="offset" />
          </mxGeometry>
        </mxCell>
        <mxCell id="-_xuoGMP2o_dF_FFNVSF-129" value="" style="fontSize=12;html=1;endArrow=ERoneToMany;rounded=0;startArrow=ERmandOne;startFill=0;endFill=0;entryX=1;entryY=0.5;entryDx=0;entryDy=0;exitX=-0.001;exitY=0.886;exitDx=0;exitDy=0;dashed=1;edgeStyle=orthogonalEdgeStyle;exitPerimeter=0;labelBackgroundColor=none;fontColor=default;" parent="1" source="fengLA5zBDZJCM1A3xZZ-28" target="fengLA5zBDZJCM1A3xZZ-18" edge="1">
          <mxGeometry width="100" height="100" relative="1" as="geometry">
            <mxPoint x="-25" y="590" as="sourcePoint" />
            <mxPoint x="-240" y="590" as="targetPoint" />
          </mxGeometry>
        </mxCell>
        <mxCell id="-_xuoGMP2o_dF_FFNVSF-130" value="&lt;span style=&quot;font-size: 20pt; background-color: light-dark(#ffffff, var(--ge-dark-color, #121212));&quot; lang=&quot;EN-US&quot;&gt;Makes&lt;/span&gt;" style="edgeLabel;html=1;align=center;verticalAlign=middle;resizable=0;points=[];labelBackgroundColor=none;" parent="-_xuoGMP2o_dF_FFNVSF-129" vertex="1" connectable="0">
          <mxGeometry x="0.0839" y="-2" relative="1" as="geometry">
            <mxPoint x="2" y="-12" as="offset" />
          </mxGeometry>
        </mxCell>
        <mxCell id="-_xuoGMP2o_dF_FFNVSF-132" value="" style="fontSize=12;html=1;endArrow=ERoneToMany;rounded=0;startArrow=ERmandOne;startFill=0;endFill=0;edgeStyle=orthogonalEdgeStyle;entryX=1;entryY=0.5;entryDx=0;entryDy=0;exitX=0;exitY=0.333;exitDx=0;exitDy=0;exitPerimeter=0;labelBackgroundColor=none;fontColor=default;" parent="1" source="fengLA5zBDZJCM1A3xZZ-28" target="-_xuoGMP2o_dF_FFNVSF-78" edge="1">
          <mxGeometry width="100" height="100" relative="1" as="geometry">
            <mxPoint x="-240" y="770" as="sourcePoint" />
            <mxPoint x="-310" y="510" as="targetPoint" />
            <Array as="points">
              <mxPoint x="-290" y="770" />
              <mxPoint x="-290" y="495" />
            </Array>
          </mxGeometry>
        </mxCell>
        <mxCell id="-_xuoGMP2o_dF_FFNVSF-136" value="" style="fontSize=12;html=1;endArrow=ERoneToMany;rounded=0;startArrow=ERmandOne;startFill=0;endFill=0;entryX=1;entryY=0.5;entryDx=0;entryDy=0;edgeStyle=orthogonalEdgeStyle;exitX=1.001;exitY=0.375;exitDx=0;exitDy=0;exitPerimeter=0;labelBackgroundColor=none;fontColor=default;" parent="1" source="fengLA5zBDZJCM1A3xZZ-28" target="U0kx324UXWErjTrPCZD7-93" edge="1">
          <mxGeometry width="100" height="100" relative="1" as="geometry">
            <mxPoint x="220" y="775" as="sourcePoint" />
            <mxPoint x="90" y="520" as="targetPoint" />
            <Array as="points">
              <mxPoint x="260" y="772" />
              <mxPoint x="260" y="486" />
            </Array>
          </mxGeometry>
        </mxCell>
        <mxCell id="-_xuoGMP2o_dF_FFNVSF-157" value="&lt;span style=&quot;font-size: 26.6667px; background-color: light-dark(#ffffff, var(--ge-dark-color, #121212));&quot;&gt;Has&lt;/span&gt;" style="edgeLabel;html=1;align=center;verticalAlign=middle;resizable=0;points=[];labelBackgroundColor=none;" parent="-_xuoGMP2o_dF_FFNVSF-136" vertex="1" connectable="0">
          <mxGeometry x="0.0057" y="-2" relative="1" as="geometry">
            <mxPoint x="-2" y="-23" as="offset" />
          </mxGeometry>
        </mxCell>
        <mxCell id="-_xuoGMP2o_dF_FFNVSF-138" value="" style="fontSize=12;html=1;endArrow=ERoneToMany;rounded=0;startArrow=ERmandOne;startFill=0;endFill=0;edgeStyle=orthogonalEdgeStyle;entryX=-0.004;entryY=0.678;entryDx=0;entryDy=0;entryPerimeter=0;labelBackgroundColor=none;fontColor=default;" parent="1" target="-_xuoGMP2o_dF_FFNVSF-75" edge="1">
          <mxGeometry width="100" height="100" relative="1" as="geometry">
            <mxPoint x="-70" y="130" as="sourcePoint" />
            <mxPoint x="-530" y="455" as="targetPoint" />
            <Array as="points">
              <mxPoint x="-71" y="130" />
              <mxPoint x="-650" y="130" />
              <mxPoint x="-650" y="470" />
            </Array>
          </mxGeometry>
        </mxCell>
        <mxCell id="-_xuoGMP2o_dF_FFNVSF-142" value="" style="fontSize=12;html=1;endArrow=ERoneToMany;rounded=0;startArrow=ERmandOne;startFill=0;endFill=0;edgeStyle=orthogonalEdgeStyle;entryX=0;entryY=0.5;entryDx=0;entryDy=0;exitX=0;exitY=0.5;exitDx=0;exitDy=0;labelBackgroundColor=none;fontColor=default;" parent="1" source="fengLA5zBDZJCM1A3xZZ-93" target="U0kx324UXWErjTrPCZD7-83" edge="1">
          <mxGeometry width="100" height="100" relative="1" as="geometry">
            <mxPoint x="470" y="790" as="sourcePoint" />
            <mxPoint x="180" y="370" as="targetPoint" />
            <Array as="points">
              <mxPoint x="310" y="775" />
              <mxPoint x="310" y="495" />
            </Array>
          </mxGeometry>
        </mxCell>
        <mxCell id="-_xuoGMP2o_dF_FFNVSF-159" value="&lt;span style=&quot;font-size: 26.6667px; background-color: light-dark(#ffffff, var(--ge-dark-color, #121212));&quot;&gt;Has&lt;/span&gt;" style="edgeLabel;html=1;align=center;verticalAlign=middle;resizable=0;points=[];labelBackgroundColor=none;" parent="-_xuoGMP2o_dF_FFNVSF-142" vertex="1" connectable="0">
          <mxGeometry x="0.1636" y="-1" relative="1" as="geometry">
            <mxPoint x="4" y="24" as="offset" />
          </mxGeometry>
        </mxCell>
        <mxCell id="fengLA5zBDZJCM1A3xZZ-27" value="&lt;b&gt;&lt;span style=&quot;font-size:12.0pt;&lt;br/&gt;font-family:&amp;quot;Aptos&amp;quot;,sans-serif;mso-ascii-theme-font:minor-latin;mso-fareast-font-family:&lt;br/&gt;&amp;quot;Times New Roman&amp;quot;;mso-fareast-theme-font:minor-fareast;mso-hansi-theme-font:&lt;br/&gt;minor-latin;mso-bidi-font-family:Arial;mso-ligatures:none;mso-ansi-language:&lt;br/&gt;EN-US;mso-fareast-language:#4C09;mso-bidi-language:AR-JO&quot; lang=&quot;EN-US&quot;&gt;Donor&lt;/span&gt;&lt;/b&gt;&lt;span style=&quot;font-size:12.0pt;font-family:&amp;quot;Aptos&amp;quot;,sans-serif;mso-ascii-theme-font:&lt;br/&gt;minor-latin;mso-fareast-font-family:&amp;quot;Times New Roman&amp;quot;;mso-fareast-theme-font:&lt;br/&gt;minor-fareast;mso-hansi-theme-font:minor-latin;mso-bidi-font-family:Arial;&lt;br/&gt;mso-ligatures:none;mso-ansi-language:EN-US;mso-fareast-language:#4C09;&lt;br/&gt;mso-bidi-language:AR-JO&quot; lang=&quot;EN-US&quot;&gt;&lt;/span&gt;" style="shape=table;startSize=30;container=1;collapsible=1;childLayout=tableLayout;fixedRows=1;rowLines=0;fontStyle=1;align=center;resizeLast=1;html=1;labelBackgroundColor=none;" parent="1" vertex="1">
          <mxGeometry x="-170" y="730" width="385" height="330" as="geometry" />
        </mxCell>
        <mxCell id="fengLA5zBDZJCM1A3xZZ-28" value="" style="shape=tableRow;horizontal=0;startSize=0;swimlaneHead=0;swimlaneBody=0;fillColor=none;collapsible=0;dropTarget=0;points=[[0,0.5],[1,0.5]];portConstraint=eastwest;top=0;left=0;right=0;bottom=1;labelBackgroundColor=none;" parent="fengLA5zBDZJCM1A3xZZ-27" vertex="1">
          <mxGeometry y="30" width="385" height="30" as="geometry" />
        </mxCell>
        <mxCell id="fengLA5zBDZJCM1A3xZZ-29" value="PK" style="shape=partialRectangle;connectable=0;fillColor=none;top=0;left=0;bottom=0;right=0;fontStyle=1;overflow=hidden;whiteSpace=wrap;html=1;labelBackgroundColor=none;" parent="fengLA5zBDZJCM1A3xZZ-28" vertex="1">
          <mxGeometry width="30" height="30" as="geometry">
            <mxRectangle width="30" height="30" as="alternateBounds" />
          </mxGeometry>
        </mxCell>
        <mxCell id="fengLA5zBDZJCM1A3xZZ-30" value="&lt;u&gt;&lt;span style=&quot;font-size:12.0pt;font-family:&amp;quot;Aptos&amp;quot;,sans-serif;mso-ascii-theme-font:&lt;br/&gt;minor-latin;mso-fareast-font-family:&amp;quot;Times New Roman&amp;quot;;mso-fareast-theme-font:&lt;br/&gt;minor-fareast;mso-hansi-theme-font:minor-latin;mso-bidi-font-family:Arial;&lt;br/&gt;mso-ligatures:none;mso-ansi-language:EN-US;mso-fareast-language:#4C09;&lt;br/&gt;mso-bidi-language:AR-JO&quot; lang=&quot;EN-US&quot;&gt;Donor_ID&amp;nbsp; &amp;nbsp;INT&lt;/span&gt;&lt;/u&gt;" style="shape=partialRectangle;connectable=0;fillColor=none;top=0;left=0;bottom=0;right=0;align=left;spacingLeft=6;fontStyle=5;overflow=hidden;whiteSpace=wrap;html=1;labelBackgroundColor=none;" parent="fengLA5zBDZJCM1A3xZZ-28" vertex="1">
          <mxGeometry x="30" width="355" height="30" as="geometry">
            <mxRectangle width="355" height="30" as="alternateBounds" />
          </mxGeometry>
        </mxCell>
        <mxCell id="fengLA5zBDZJCM1A3xZZ-31" value="" style="shape=tableRow;horizontal=0;startSize=0;swimlaneHead=0;swimlaneBody=0;fillColor=none;collapsible=0;dropTarget=0;points=[[0,0.5],[1,0.5]];portConstraint=eastwest;top=0;left=0;right=0;bottom=0;labelBackgroundColor=none;" parent="fengLA5zBDZJCM1A3xZZ-27" vertex="1">
          <mxGeometry y="60" width="385" height="30" as="geometry" />
        </mxCell>
        <mxCell id="fengLA5zBDZJCM1A3xZZ-32" value="" style="shape=partialRectangle;connectable=0;fillColor=none;top=0;left=0;bottom=0;right=0;editable=1;overflow=hidden;whiteSpace=wrap;html=1;labelBackgroundColor=none;" parent="fengLA5zBDZJCM1A3xZZ-31" vertex="1">
          <mxGeometry width="30" height="30" as="geometry">
            <mxRectangle width="30" height="30" as="alternateBounds" />
          </mxGeometry>
        </mxCell>
        <mxCell id="fengLA5zBDZJCM1A3xZZ-33" value="&lt;span style=&quot;font-size:12.0pt;font-family:&lt;br/&gt;&amp;quot;Aptos&amp;quot;,sans-serif;mso-ascii-theme-font:minor-latin;mso-fareast-font-family:&lt;br/&gt;&amp;quot;Times New Roman&amp;quot;;mso-fareast-theme-font:minor-fareast;mso-hansi-theme-font:&lt;br/&gt;minor-latin;mso-bidi-font-family:Arial;mso-ligatures:none;mso-ansi-language:&lt;br/&gt;EN-US;mso-fareast-language:#4C09;mso-bidi-language:AR-JO&quot; lang=&quot;EN-US&quot;&gt;First_Name&amp;nbsp; &amp;nbsp;VARCHAR(10), NOT NULL&lt;/span&gt;" style="shape=partialRectangle;connectable=0;fillColor=none;top=0;left=0;bottom=0;right=0;align=left;spacingLeft=6;overflow=hidden;whiteSpace=wrap;html=1;labelBackgroundColor=none;" parent="fengLA5zBDZJCM1A3xZZ-31" vertex="1">
          <mxGeometry x="30" width="355" height="30" as="geometry">
            <mxRectangle width="355" height="30" as="alternateBounds" />
          </mxGeometry>
        </mxCell>
        <mxCell id="fengLA5zBDZJCM1A3xZZ-34" value="" style="shape=tableRow;horizontal=0;startSize=0;swimlaneHead=0;swimlaneBody=0;fillColor=none;collapsible=0;dropTarget=0;points=[[0,0.5],[1,0.5]];portConstraint=eastwest;top=0;left=0;right=0;bottom=0;labelBackgroundColor=none;" parent="fengLA5zBDZJCM1A3xZZ-27" vertex="1">
          <mxGeometry y="90" width="385" height="30" as="geometry" />
        </mxCell>
        <mxCell id="fengLA5zBDZJCM1A3xZZ-35" value="" style="shape=partialRectangle;connectable=0;fillColor=none;top=0;left=0;bottom=0;right=0;editable=1;overflow=hidden;whiteSpace=wrap;html=1;labelBackgroundColor=none;" parent="fengLA5zBDZJCM1A3xZZ-34" vertex="1">
          <mxGeometry width="30" height="30" as="geometry">
            <mxRectangle width="30" height="30" as="alternateBounds" />
          </mxGeometry>
        </mxCell>
        <mxCell id="fengLA5zBDZJCM1A3xZZ-36" value="&lt;span style=&quot;font-size:12.0pt;font-family:&lt;br/&gt;&amp;quot;Aptos&amp;quot;,sans-serif;mso-ascii-theme-font:minor-latin;mso-fareast-font-family:&lt;br/&gt;&amp;quot;Times New Roman&amp;quot;;mso-fareast-theme-font:minor-fareast;mso-hansi-theme-font:&lt;br/&gt;minor-latin;mso-bidi-font-family:Arial;mso-ligatures:none;mso-ansi-language:&lt;br/&gt;EN-US;mso-fareast-language:#4C09;mso-bidi-language:AR-JO&quot; lang=&quot;EN-US&quot;&gt;Last_Name&lt;/span&gt;&lt;span style=&quot;font-size: 16px;&quot;&gt;&amp;nbsp; &amp;nbsp;VARCHAR(10), NOT NULL&lt;/span&gt;" style="shape=partialRectangle;connectable=0;fillColor=none;top=0;left=0;bottom=0;right=0;align=left;spacingLeft=6;overflow=hidden;whiteSpace=wrap;html=1;labelBackgroundColor=none;" parent="fengLA5zBDZJCM1A3xZZ-34" vertex="1">
          <mxGeometry x="30" width="355" height="30" as="geometry">
            <mxRectangle width="355" height="30" as="alternateBounds" />
          </mxGeometry>
        </mxCell>
        <mxCell id="U0kx324UXWErjTrPCZD7-2" value="" style="shape=tableRow;horizontal=0;startSize=0;swimlaneHead=0;swimlaneBody=0;fillColor=none;collapsible=0;dropTarget=0;points=[[0,0.5],[1,0.5]];portConstraint=eastwest;top=0;left=0;right=0;bottom=0;labelBackgroundColor=none;" parent="fengLA5zBDZJCM1A3xZZ-27" vertex="1">
          <mxGeometry y="120" width="385" height="30" as="geometry" />
        </mxCell>
        <mxCell id="U0kx324UXWErjTrPCZD7-3" value="" style="shape=partialRectangle;connectable=0;fillColor=none;top=0;left=0;bottom=0;right=0;editable=1;overflow=hidden;whiteSpace=wrap;html=1;labelBackgroundColor=none;" parent="U0kx324UXWErjTrPCZD7-2" vertex="1">
          <mxGeometry width="30" height="30" as="geometry">
            <mxRectangle width="30" height="30" as="alternateBounds" />
          </mxGeometry>
        </mxCell>
        <mxCell id="U0kx324UXWErjTrPCZD7-4" value="&lt;span style=&quot;font-family: Aptos, sans-serif; font-size: 16px;&quot;&gt;Email&amp;nbsp; &amp;nbsp; &amp;nbsp; &amp;nbsp; VARCHAR(250), NOT NULL,&amp;nbsp;&lt;/span&gt;&lt;font face=&quot;Aptos, sans-serif&quot;&gt;&lt;span style=&quot;font-size: 16px;&quot;&gt;Unique&lt;/span&gt;&lt;/font&gt;" style="shape=partialRectangle;connectable=0;fillColor=none;top=0;left=0;bottom=0;right=0;align=left;spacingLeft=6;overflow=hidden;whiteSpace=wrap;html=1;labelBackgroundColor=none;" parent="U0kx324UXWErjTrPCZD7-2" vertex="1">
          <mxGeometry x="30" width="355" height="30" as="geometry">
            <mxRectangle width="355" height="30" as="alternateBounds" />
          </mxGeometry>
        </mxCell>
        <mxCell id="U0kx324UXWErjTrPCZD7-8" value="" style="shape=tableRow;horizontal=0;startSize=0;swimlaneHead=0;swimlaneBody=0;fillColor=none;collapsible=0;dropTarget=0;points=[[0,0.5],[1,0.5]];portConstraint=eastwest;top=0;left=0;right=0;bottom=0;labelBackgroundColor=none;" parent="fengLA5zBDZJCM1A3xZZ-27" vertex="1">
          <mxGeometry y="150" width="385" height="30" as="geometry" />
        </mxCell>
        <mxCell id="U0kx324UXWErjTrPCZD7-9" value="" style="shape=partialRectangle;connectable=0;fillColor=none;top=0;left=0;bottom=0;right=0;editable=1;overflow=hidden;whiteSpace=wrap;html=1;labelBackgroundColor=none;" parent="U0kx324UXWErjTrPCZD7-8" vertex="1">
          <mxGeometry width="30" height="30" as="geometry">
            <mxRectangle width="30" height="30" as="alternateBounds" />
          </mxGeometry>
        </mxCell>
        <mxCell id="U0kx324UXWErjTrPCZD7-10" value="&lt;span style=&quot;font-family: Aptos, sans-serif; font-size: 16px;&quot;&gt;Country&lt;/span&gt;&lt;span style=&quot;font-size: 12pt; font-family: Aptos, sans-serif;&quot;&gt;&amp;nbsp; &amp;nbsp;&lt;/span&gt;&lt;span style=&quot;font-family: Aptos, sans-serif; font-size: 16px;&quot;&gt;&amp;nbsp;&lt;/span&gt;&lt;span style=&quot;font-family: Aptos, sans-serif; font-size: 16px;&quot;&gt;VARCHAR(56)&lt;/span&gt;&lt;font face=&quot;Aptos, sans-serif&quot;&gt;&lt;span style=&quot;font-size: 16px;&quot;&gt;, Default(Jordan)&lt;/span&gt;&lt;/font&gt;" style="shape=partialRectangle;connectable=0;fillColor=none;top=0;left=0;bottom=0;right=0;align=left;spacingLeft=6;overflow=hidden;whiteSpace=wrap;html=1;labelBackgroundColor=none;" parent="U0kx324UXWErjTrPCZD7-8" vertex="1">
          <mxGeometry x="30" width="355" height="30" as="geometry">
            <mxRectangle width="355" height="30" as="alternateBounds" />
          </mxGeometry>
        </mxCell>
        <mxCell id="U0kx324UXWErjTrPCZD7-11" value="" style="shape=tableRow;horizontal=0;startSize=0;swimlaneHead=0;swimlaneBody=0;fillColor=none;collapsible=0;dropTarget=0;points=[[0,0.5],[1,0.5]];portConstraint=eastwest;top=0;left=0;right=0;bottom=0;labelBackgroundColor=none;" parent="fengLA5zBDZJCM1A3xZZ-27" vertex="1">
          <mxGeometry y="180" width="385" height="30" as="geometry" />
        </mxCell>
        <mxCell id="U0kx324UXWErjTrPCZD7-12" value="" style="shape=partialRectangle;connectable=0;fillColor=none;top=0;left=0;bottom=0;right=0;editable=1;overflow=hidden;whiteSpace=wrap;html=1;labelBackgroundColor=none;" parent="U0kx324UXWErjTrPCZD7-11" vertex="1">
          <mxGeometry width="30" height="30" as="geometry">
            <mxRectangle width="30" height="30" as="alternateBounds" />
          </mxGeometry>
        </mxCell>
        <mxCell id="U0kx324UXWErjTrPCZD7-13" value="&lt;span style=&quot;font-family: Aptos, sans-serif; font-size: 16px;&quot;&gt;City&amp;nbsp; &amp;nbsp; &amp;nbsp; &amp;nbsp; &amp;nbsp; &amp;nbsp;&lt;/span&gt;&lt;span style=&quot;font-family: Aptos, sans-serif; font-size: 16px;&quot;&gt;VARCHAR(30)&lt;/span&gt;&lt;font face=&quot;Aptos, sans-serif&quot;&gt;&lt;span style=&quot;font-size: 16px;&quot;&gt;, NOT NULL&lt;/span&gt;&lt;/font&gt;" style="shape=partialRectangle;connectable=0;fillColor=none;top=0;left=0;bottom=0;right=0;align=left;spacingLeft=6;overflow=hidden;whiteSpace=wrap;html=1;labelBackgroundColor=none;" parent="U0kx324UXWErjTrPCZD7-11" vertex="1">
          <mxGeometry x="30" width="355" height="30" as="geometry">
            <mxRectangle width="355" height="30" as="alternateBounds" />
          </mxGeometry>
        </mxCell>
        <mxCell id="U0kx324UXWErjTrPCZD7-14" value="" style="shape=tableRow;horizontal=0;startSize=0;swimlaneHead=0;swimlaneBody=0;fillColor=none;collapsible=0;dropTarget=0;points=[[0,0.5],[1,0.5]];portConstraint=eastwest;top=0;left=0;right=0;bottom=0;labelBackgroundColor=none;" parent="fengLA5zBDZJCM1A3xZZ-27" vertex="1">
          <mxGeometry y="210" width="385" height="30" as="geometry" />
        </mxCell>
        <mxCell id="U0kx324UXWErjTrPCZD7-15" value="" style="shape=partialRectangle;connectable=0;fillColor=none;top=0;left=0;bottom=0;right=0;editable=1;overflow=hidden;whiteSpace=wrap;html=1;labelBackgroundColor=none;" parent="U0kx324UXWErjTrPCZD7-14" vertex="1">
          <mxGeometry width="30" height="30" as="geometry">
            <mxRectangle width="30" height="30" as="alternateBounds" />
          </mxGeometry>
        </mxCell>
        <mxCell id="U0kx324UXWErjTrPCZD7-16" value="&lt;span style=&quot;font-family: Aptos, sans-serif; font-size: 16px;&quot;&gt;Street_name&amp;nbsp;&amp;nbsp;&lt;/span&gt;&lt;span style=&quot;font-family: Aptos, sans-serif; font-size: 16px;&quot;&gt;VARCHAR(30)&lt;/span&gt;&lt;font face=&quot;Aptos, sans-serif&quot;&gt;&lt;span style=&quot;font-size: 16px;&quot;&gt;, NOT NULL&lt;/span&gt;&lt;/font&gt;" style="shape=partialRectangle;connectable=0;fillColor=none;top=0;left=0;bottom=0;right=0;align=left;spacingLeft=6;overflow=hidden;whiteSpace=wrap;html=1;labelBackgroundColor=none;" parent="U0kx324UXWErjTrPCZD7-14" vertex="1">
          <mxGeometry x="30" width="355" height="30" as="geometry">
            <mxRectangle width="355" height="30" as="alternateBounds" />
          </mxGeometry>
        </mxCell>
        <mxCell id="U0kx324UXWErjTrPCZD7-45" value="" style="shape=tableRow;horizontal=0;startSize=0;swimlaneHead=0;swimlaneBody=0;fillColor=none;collapsible=0;dropTarget=0;points=[[0,0.5],[1,0.5]];portConstraint=eastwest;top=0;left=0;right=0;bottom=0;labelBackgroundColor=none;" parent="fengLA5zBDZJCM1A3xZZ-27" vertex="1">
          <mxGeometry y="240" width="385" height="30" as="geometry" />
        </mxCell>
        <mxCell id="U0kx324UXWErjTrPCZD7-46" value="" style="shape=partialRectangle;connectable=0;fillColor=none;top=0;left=0;bottom=0;right=0;editable=1;overflow=hidden;whiteSpace=wrap;html=1;labelBackgroundColor=none;" parent="U0kx324UXWErjTrPCZD7-45" vertex="1">
          <mxGeometry width="30" height="30" as="geometry">
            <mxRectangle width="30" height="30" as="alternateBounds" />
          </mxGeometry>
        </mxCell>
        <mxCell id="U0kx324UXWErjTrPCZD7-47" value="&lt;span style=&quot;font-family: Aptos, sans-serif; font-size: 16px;&quot;&gt;Building_Number&amp;nbsp; &amp;nbsp; VARCHAR(10), NOT NULL&lt;/span&gt;" style="shape=partialRectangle;connectable=0;fillColor=none;top=0;left=0;bottom=0;right=0;align=left;spacingLeft=6;overflow=hidden;whiteSpace=wrap;html=1;labelBackgroundColor=none;" parent="U0kx324UXWErjTrPCZD7-45" vertex="1">
          <mxGeometry x="30" width="355" height="30" as="geometry">
            <mxRectangle width="355" height="30" as="alternateBounds" />
          </mxGeometry>
        </mxCell>
        <mxCell id="AB6vwTqWQWzhfj3XzBku-4" value="" style="shape=tableRow;horizontal=0;startSize=0;swimlaneHead=0;swimlaneBody=0;fillColor=none;collapsible=0;dropTarget=0;points=[[0,0.5],[1,0.5]];portConstraint=eastwest;top=0;left=0;right=0;bottom=0;labelBackgroundColor=none;" parent="fengLA5zBDZJCM1A3xZZ-27" vertex="1">
          <mxGeometry y="270" width="385" height="30" as="geometry" />
        </mxCell>
        <mxCell id="AB6vwTqWQWzhfj3XzBku-5" value="" style="shape=partialRectangle;connectable=0;fillColor=none;top=0;left=0;bottom=0;right=0;editable=1;overflow=hidden;whiteSpace=wrap;html=1;labelBackgroundColor=none;" parent="AB6vwTqWQWzhfj3XzBku-4" vertex="1">
          <mxGeometry width="30" height="30" as="geometry">
            <mxRectangle width="30" height="30" as="alternateBounds" />
          </mxGeometry>
        </mxCell>
        <mxCell id="AB6vwTqWQWzhfj3XzBku-6" value="&lt;span style=&quot;font-size: 11pt; font-family: Calibri, sans-serif;&quot; lang=&quot;EN-US&quot;&gt;&lt;span style=&quot;font-family: Aptos, sans-serif; font-size: 16px;&quot;&gt;Date_Of_Birth&lt;/span&gt;&amp;nbsp; &amp;nbsp;&amp;nbsp;&lt;/span&gt;&lt;span style=&quot;font-size: 16px;&quot;&gt;DATE, NOT NULL&lt;/span&gt;" style="shape=partialRectangle;connectable=0;fillColor=none;top=0;left=0;bottom=0;right=0;align=left;spacingLeft=6;overflow=hidden;whiteSpace=wrap;html=1;labelBackgroundColor=none;" parent="AB6vwTqWQWzhfj3XzBku-4" vertex="1">
          <mxGeometry x="30" width="355" height="30" as="geometry">
            <mxRectangle width="355" height="30" as="alternateBounds" />
          </mxGeometry>
        </mxCell>
        <mxCell id="AB6vwTqWQWzhfj3XzBku-7" value="" style="shape=tableRow;horizontal=0;startSize=0;swimlaneHead=0;swimlaneBody=0;fillColor=none;collapsible=0;dropTarget=0;points=[[0,0.5],[1,0.5]];portConstraint=eastwest;top=0;left=0;right=0;bottom=0;labelBackgroundColor=none;" parent="fengLA5zBDZJCM1A3xZZ-27" vertex="1">
          <mxGeometry y="300" width="385" height="30" as="geometry" />
        </mxCell>
        <mxCell id="AB6vwTqWQWzhfj3XzBku-8" value="" style="shape=partialRectangle;connectable=0;fillColor=none;top=0;left=0;bottom=0;right=0;editable=1;overflow=hidden;whiteSpace=wrap;html=1;labelBackgroundColor=none;" parent="AB6vwTqWQWzhfj3XzBku-7" vertex="1">
          <mxGeometry width="30" height="30" as="geometry">
            <mxRectangle width="30" height="30" as="alternateBounds" />
          </mxGeometry>
        </mxCell>
        <mxCell id="AB6vwTqWQWzhfj3XzBku-9" value="&lt;span style=&quot;font-size: 16px;&quot;&gt;Occupation&amp;nbsp; &amp;nbsp; &amp;nbsp;TEXT&lt;/span&gt;" style="shape=partialRectangle;connectable=0;fillColor=none;top=0;left=0;bottom=0;right=0;align=left;spacingLeft=6;overflow=hidden;whiteSpace=wrap;html=1;labelBackgroundColor=none;" parent="AB6vwTqWQWzhfj3XzBku-7" vertex="1">
          <mxGeometry x="30" width="355" height="30" as="geometry">
            <mxRectangle width="355" height="30" as="alternateBounds" />
          </mxGeometry>
        </mxCell>
        <mxCell id="-_xuoGMP2o_dF_FFNVSF-152" value="" style="fontSize=12;html=1;endArrow=ERmandOne;rounded=0;startArrow=ERoneToMany;startFill=0;endFill=0;entryX=1;entryY=0.5;entryDx=0;entryDy=0;edgeStyle=orthogonalEdgeStyle;labelBackgroundColor=none;fontColor=default;" parent="1" target="fengLA5zBDZJCM1A3xZZ-119" edge="1">
          <mxGeometry width="100" height="100" relative="1" as="geometry">
            <mxPoint x="850" y="500" as="sourcePoint" />
            <mxPoint x="400" y="85" as="targetPoint" />
            <Array as="points">
              <mxPoint x="810" y="500" />
              <mxPoint x="810" y="120" />
            </Array>
          </mxGeometry>
        </mxCell>
        <mxCell id="PmkIiIWrDnFB2oXnPQAK-15" value="&lt;span style=&quot;font-size: 26.6667px; background-color: light-dark(#ffffff, var(--ge-dark-color, #121212));&quot;&gt;Belongs to&lt;/span&gt;" style="edgeLabel;html=1;align=center;verticalAlign=middle;resizable=0;points=[];labelBackgroundColor=none;" parent="1" vertex="1" connectable="0">
          <mxGeometry x="800.0033333333334" y="210" as="geometry" />
        </mxCell>
        <mxCell id="U0kx324UXWErjTrPCZD7-79" value="&lt;b style=&quot;text-wrap: nowrap;&quot;&gt;&lt;span style=&quot;font-size: 12pt;&quot; lang=&quot;EN-US&quot;&gt;Volunteer_Phone_Numbers&lt;/span&gt;&lt;/b&gt;" style="shape=table;startSize=30;container=1;collapsible=1;childLayout=tableLayout;fixedRows=1;rowLines=0;fontStyle=1;align=center;resizeLast=1;html=1;whiteSpace=wrap;labelBackgroundColor=none;" parent="1" vertex="1">
          <mxGeometry x="380" y="450" width="400" height="100" as="geometry" />
        </mxCell>
        <mxCell id="U0kx324UXWErjTrPCZD7-83" value="" style="shape=tableRow;horizontal=0;startSize=0;swimlaneHead=0;swimlaneBody=0;fillColor=none;collapsible=0;dropTarget=0;points=[[0,0.5],[1,0.5]];portConstraint=eastwest;top=0;left=0;right=0;bottom=1;html=1;labelBackgroundColor=none;" parent="U0kx324UXWErjTrPCZD7-79" vertex="1">
          <mxGeometry y="30" width="400" height="30" as="geometry" />
        </mxCell>
        <mxCell id="U0kx324UXWErjTrPCZD7-84" value="PK,FK" style="shape=partialRectangle;connectable=0;fillColor=none;top=0;left=0;bottom=0;right=0;fontStyle=1;overflow=hidden;html=1;whiteSpace=wrap;labelBackgroundColor=none;" parent="U0kx324UXWErjTrPCZD7-83" vertex="1">
          <mxGeometry width="60" height="30" as="geometry">
            <mxRectangle width="60" height="30" as="alternateBounds" />
          </mxGeometry>
        </mxCell>
        <mxCell id="U0kx324UXWErjTrPCZD7-85" value="&lt;span style=&quot;font-size: 12pt; font-family: Aptos, sans-serif;&quot;&gt;Volunteer_ID&lt;/span&gt;&lt;span style=&quot;font-family: Aptos, sans-serif; font-size: 16px;&quot;&gt;&amp;nbsp; &amp;nbsp; &amp;nbsp;INT, NOT NULL&lt;/span&gt;" style="shape=partialRectangle;connectable=0;fillColor=none;top=0;left=0;bottom=0;right=0;align=left;spacingLeft=6;fontStyle=5;overflow=hidden;html=1;whiteSpace=wrap;labelBackgroundColor=none;" parent="U0kx324UXWErjTrPCZD7-83" vertex="1">
          <mxGeometry x="60" width="340" height="30" as="geometry">
            <mxRectangle width="340" height="30" as="alternateBounds" />
          </mxGeometry>
        </mxCell>
        <mxCell id="U0kx324UXWErjTrPCZD7-86" value="" style="shape=tableRow;horizontal=0;startSize=0;swimlaneHead=0;swimlaneBody=0;fillColor=none;collapsible=0;dropTarget=0;points=[[0,0.5],[1,0.5]];portConstraint=eastwest;top=0;left=0;right=0;bottom=0;html=1;labelBackgroundColor=none;" parent="U0kx324UXWErjTrPCZD7-79" vertex="1">
          <mxGeometry y="60" width="400" height="40" as="geometry" />
        </mxCell>
        <mxCell id="U0kx324UXWErjTrPCZD7-87" value="PK" style="shape=partialRectangle;connectable=0;fillColor=none;top=0;left=0;bottom=0;right=0;editable=1;overflow=hidden;html=1;whiteSpace=wrap;labelBackgroundColor=none;" parent="U0kx324UXWErjTrPCZD7-86" vertex="1">
          <mxGeometry width="60" height="40" as="geometry">
            <mxRectangle width="60" height="40" as="alternateBounds" />
          </mxGeometry>
        </mxCell>
        <mxCell id="U0kx324UXWErjTrPCZD7-88" value="&lt;u&gt;&lt;span style=&quot;font-size: 12pt;&quot; lang=&quot;EN-US&quot;&gt;&lt;b&gt;Phone_Number&amp;nbsp;VARCHAR(15), NOT NULL&lt;/b&gt;&lt;/span&gt;&lt;/u&gt;" style="shape=partialRectangle;connectable=0;fillColor=none;top=0;left=0;bottom=0;right=0;align=left;spacingLeft=6;overflow=hidden;html=1;whiteSpace=wrap;labelBackgroundColor=none;" parent="U0kx324UXWErjTrPCZD7-86" vertex="1">
          <mxGeometry x="60" width="340" height="40" as="geometry">
            <mxRectangle width="340" height="40" as="alternateBounds" />
          </mxGeometry>
        </mxCell>
        <mxCell id="U0kx324UXWErjTrPCZD7-91" value="&lt;span style=&quot;font-size: 26.6667px; background-color: light-dark(#ffffff, var(--ge-dark-color, #121212));&quot;&gt;Belongs to&lt;/span&gt;" style="edgeLabel;html=1;align=center;verticalAlign=middle;resizable=0;points=[];labelBackgroundColor=none;" parent="1" vertex="1" connectable="0">
          <mxGeometry x="-279.99666666666656" y="640" as="geometry">
            <mxPoint x="-11" y="3" as="offset" />
          </mxGeometry>
        </mxCell>
        <mxCell id="U0kx324UXWErjTrPCZD7-92" value="&lt;b style=&quot;text-wrap: nowrap;&quot;&gt;&lt;span style=&quot;font-size: 12pt;&quot; lang=&quot;EN-US&quot;&gt;Donor_Phone_Numbers&lt;/span&gt;&lt;/b&gt;" style="shape=table;startSize=30;container=1;collapsible=1;childLayout=tableLayout;fixedRows=1;rowLines=0;fontStyle=1;align=center;resizeLast=1;html=1;whiteSpace=wrap;labelBackgroundColor=none;" parent="1" vertex="1">
          <mxGeometry x="-185" y="440" width="400" height="100" as="geometry" />
        </mxCell>
        <mxCell id="U0kx324UXWErjTrPCZD7-93" value="" style="shape=tableRow;horizontal=0;startSize=0;swimlaneHead=0;swimlaneBody=0;fillColor=none;collapsible=0;dropTarget=0;points=[[0,0.5],[1,0.5]];portConstraint=eastwest;top=0;left=0;right=0;bottom=1;html=1;labelBackgroundColor=none;" parent="U0kx324UXWErjTrPCZD7-92" vertex="1">
          <mxGeometry y="30" width="400" height="30" as="geometry" />
        </mxCell>
        <mxCell id="U0kx324UXWErjTrPCZD7-94" value="PK,FK" style="shape=partialRectangle;connectable=0;fillColor=none;top=0;left=0;bottom=0;right=0;fontStyle=1;overflow=hidden;html=1;whiteSpace=wrap;labelBackgroundColor=none;" parent="U0kx324UXWErjTrPCZD7-93" vertex="1">
          <mxGeometry width="60" height="30" as="geometry">
            <mxRectangle width="60" height="30" as="alternateBounds" />
          </mxGeometry>
        </mxCell>
        <mxCell id="U0kx324UXWErjTrPCZD7-95" value="&lt;span style=&quot;font-family: Aptos, sans-serif; font-size: 16px;&quot;&gt;Donor_ID&amp;nbsp; &amp;nbsp; &amp;nbsp;INT, NOT NULL&lt;/span&gt;" style="shape=partialRectangle;connectable=0;fillColor=none;top=0;left=0;bottom=0;right=0;align=left;spacingLeft=6;fontStyle=5;overflow=hidden;html=1;whiteSpace=wrap;labelBackgroundColor=none;" parent="U0kx324UXWErjTrPCZD7-93" vertex="1">
          <mxGeometry x="60" width="340" height="30" as="geometry">
            <mxRectangle width="340" height="30" as="alternateBounds" />
          </mxGeometry>
        </mxCell>
        <mxCell id="U0kx324UXWErjTrPCZD7-96" value="" style="shape=tableRow;horizontal=0;startSize=0;swimlaneHead=0;swimlaneBody=0;fillColor=none;collapsible=0;dropTarget=0;points=[[0,0.5],[1,0.5]];portConstraint=eastwest;top=0;left=0;right=0;bottom=0;html=1;labelBackgroundColor=none;" parent="U0kx324UXWErjTrPCZD7-92" vertex="1">
          <mxGeometry y="60" width="400" height="40" as="geometry" />
        </mxCell>
        <mxCell id="U0kx324UXWErjTrPCZD7-97" value="PK" style="shape=partialRectangle;connectable=0;fillColor=none;top=0;left=0;bottom=0;right=0;editable=1;overflow=hidden;html=1;whiteSpace=wrap;labelBackgroundColor=none;" parent="U0kx324UXWErjTrPCZD7-96" vertex="1">
          <mxGeometry width="60" height="40" as="geometry">
            <mxRectangle width="60" height="40" as="alternateBounds" />
          </mxGeometry>
        </mxCell>
        <mxCell id="U0kx324UXWErjTrPCZD7-98" value="&lt;u&gt;&lt;span style=&quot;font-size: 12pt;&quot; lang=&quot;EN-US&quot;&gt;&lt;b&gt;Phone_Number&amp;nbsp;VARCHAR(15), NOT NULL&lt;/b&gt;&lt;/span&gt;&lt;/u&gt;" style="shape=partialRectangle;connectable=0;fillColor=none;top=0;left=0;bottom=0;right=0;align=left;spacingLeft=6;overflow=hidden;html=1;whiteSpace=wrap;labelBackgroundColor=none;" parent="U0kx324UXWErjTrPCZD7-96" vertex="1">
          <mxGeometry x="60" width="340" height="40" as="geometry">
            <mxRectangle width="340" height="40" as="alternateBounds" />
          </mxGeometry>
        </mxCell>
        <mxCell id="AB6vwTqWQWzhfj3XzBku-10" value="" style="fontSize=12;html=1;endArrow=ERoneToMany;rounded=0;startArrow=ERmandOne;startFill=0;endFill=0;edgeStyle=orthogonalEdgeStyle;entryX=1;entryY=0.652;entryDx=0;entryDy=0;entryPerimeter=0;exitX=1;exitY=0.5;exitDx=0;exitDy=0;labelBackgroundColor=none;fontColor=default;" parent="1" source="fengLA5zBDZJCM1A3xZZ-93" target="-_xuoGMP2o_dF_FFNVSF-110" edge="1">
          <mxGeometry width="100" height="100" relative="1" as="geometry">
            <mxPoint x="1030" y="780" as="sourcePoint" />
            <mxPoint x="1210" y="525" as="targetPoint" />
            <Array as="points">
              <mxPoint x="1200" y="775" />
              <mxPoint x="1200" y="530" />
              <mxPoint x="1170" y="530" />
            </Array>
          </mxGeometry>
        </mxCell>
        <mxCell id="AB6vwTqWQWzhfj3XzBku-13" value="&lt;span style=&quot;font-size: 26.6667px; background-color: light-dark(#ffffff, var(--ge-dark-color, #121212));&quot;&gt;Belongs to&lt;/span&gt;" style="edgeLabel;html=1;align=center;verticalAlign=middle;resizable=0;points=[];labelBackgroundColor=none;" parent="1" vertex="1" connectable="0">
          <mxGeometry x="-649.9966666666666" y="220" as="geometry" />
        </mxCell>
        <mxCell id="AB6vwTqWQWzhfj3XzBku-15" value="&lt;span style=&quot;font-size: 26.6667px; background-color: light-dark(#ffffff, var(--ge-dark-color, #121212));&quot;&gt;Belongs to&lt;/span&gt;" style="edgeLabel;html=1;align=center;verticalAlign=middle;resizable=0;points=[];labelBackgroundColor=none;" parent="1" vertex="1" connectable="0">
          <mxGeometry x="1180.0033333333336" y="650" as="geometry">
            <mxPoint x="3" y="18" as="offset" />
          </mxGeometry>
        </mxCell>
      </root>
    </mxGraphModel>
  </diagram>
</mxfile>
